<svg width="74" height="56" viewBox="0 0 74 56" fill="none" xmlns="http://www.w3.org/2000/svg">
<path d="M1 1H73V55H1V1Z" fill="url(#paint0_linear_1410_5553)" fill-opacity="0.5"/>
<path d="M52 28L52.2527 26.5214L52.2527 29.4786L52 28ZM22 26.5L50.7324 26.5L50.7324 29.5L22 29.5L22 26.5ZM52 28C52.2527 29.4786 52.2531 29.4785 52.2535 29.4784C52.2536 29.4784 52.2539 29.4784 52.254 29.4783C52.2541 29.4783 52.2541 29.4783 52.2538 29.4784C52.2533 29.4785 52.2518 29.4787 52.2495 29.4791C52.2448 29.48 52.2366 29.4814 52.2249 29.4835C52.2015 29.4878 52.1644 29.4947 52.1144 29.5044C52.0145 29.5237 51.8634 29.5542 51.6683 29.5971C51.278 29.6829 50.7139 29.8177 50.0342 30.0114C48.6692 30.4002 46.8665 31.018 45.0788 31.9347C41.4326 33.8044 38.2887 36.6658 38.2887 41L35.2887 41C35.2887 34.9342 39.7505 31.2956 43.7099 29.2653C45.725 28.232 47.7252 27.5498 49.2123 27.1261C49.9587 26.9135 50.5829 26.764 51.0244 26.667C51.2454 26.6184 51.421 26.5829 51.5439 26.5591C51.6053 26.5472 51.6536 26.5382 51.6878 26.532C51.7049 26.5289 51.7185 26.5265 51.7285 26.5247C51.7334 26.5238 51.7375 26.5231 51.7406 26.5226C51.7422 26.5223 51.7435 26.5221 51.7447 26.5219C51.7452 26.5218 51.7459 26.5217 51.7461 26.5216C51.7467 26.5215 51.7473 26.5214 52 28ZM52 28C51.7473 29.4786 51.7467 29.4785 51.7461 29.4784C51.7459 29.4783 51.7452 29.4782 51.7447 29.4781C51.7435 29.4779 51.7422 29.4777 51.7406 29.4774C51.7375 29.4769 51.7334 29.4762 51.7285 29.4753C51.7185 29.4735 51.7049 29.4711 51.6878 29.468C51.6536 29.4618 51.6053 29.4528 51.5439 29.4409C51.421 29.4171 51.2454 29.3816 51.0244 29.333C50.5829 29.236 49.9587 29.0865 49.2123 28.8739C47.7252 28.4502 45.725 27.768 43.7099 26.7347C39.7505 24.7044 35.2887 21.0658 35.2887 15L38.2887 15C38.2887 19.3342 41.4326 22.1956 45.0788 24.0653C46.8665 24.982 48.6692 25.5998 50.0342 25.9886C50.7139 26.1823 51.278 26.3171 51.6683 26.4029C51.8634 26.4458 52.0145 26.4763 52.1144 26.4956C52.1644 26.5053 52.2015 26.5122 52.2249 26.5165C52.2366 26.5186 52.2448 26.52 52.2495 26.5209C52.2518 26.5213 52.2533 26.5215 52.2538 26.5216C52.2541 26.5217 52.2541 26.5217 52.254 26.5217C52.2539 26.5216 52.2536 26.5216 52.2535 26.5216C52.2531 26.5215 52.2527 26.5214 52 28Z" fill="url(#paint1_linear_1410_5553)"/>
<path d="M1 1V0H0V1H1ZM73 1H74V0H73V1ZM73 55V56H74V55H73ZM1 55H0V56H1V55ZM1 2H73V0H1V2ZM72 1V55H74V1H72ZM73 54H1V56H73V54ZM2 55V1H0V55H2Z" fill="url(#paint2_linear_1410_5553)"/>
<defs>
<linearGradient id="paint0_linear_1410_5553" x1="73" y1="28" x2="-98.5" y2="28" gradientUnits="userSpaceOnUse">
<stop stop-color="#8C0000"/>
<stop offset="1" stop-color="#340000"/>
</linearGradient>
<linearGradient id="paint1_linear_1410_5553" x1="22" y1="28" x2="52" y2="28" gradientUnits="userSpaceOnUse">
<stop stop-color="#FEFFDA" stop-opacity="0"/>
<stop offset="1" stop-color="#FEFFDA"/>
</linearGradient>
<linearGradient id="paint2_linear_1410_5553" x1="1" y1="30.5962" x2="73" y2="30.5962" gradientUnits="userSpaceOnUse">
<stop stop-color="#3D0000" stop-opacity="0.91"/>
<stop offset="1" stop-color="#FF0000" stop-opacity="0.6"/>
</linearGradient>
</defs>
</svg>
