<svg width="210" height="42" viewBox="0 0 210 42" fill="none" xmlns="http://www.w3.org/2000/svg">
<g clip-path="url(#clip0_637_2606)">
<path d="M12.8129 17.6488L20.9693 9.49264L29.1301 17.6531L33.8761 12.9071L20.9693 0L8.06689 12.9028L12.8129 17.6488Z" fill="white"/>
<path d="M9.46124 20.9993L4.71533 16.2534L-0.0308061 20.9996L4.7151 25.7455L9.46124 20.9993Z" fill="white"/>
<path d="M12.8125 24.3513L20.969 32.5074L29.1294 24.3473L33.878 29.0906L33.8757 29.0933L20.969 42L8.0662 29.0976L8.05957 29.091L12.8125 24.3513Z" fill="white"/>
<path d="M37.2236 25.7476L41.9697 21.0015L37.2238 16.2556L32.4777 21.0017L37.2236 25.7476Z" fill="white"/>
<path d="M25.7832 20.9975H25.7852L20.9692 16.1815L17.4101 19.7406H17.4098L17.0011 20.1496L16.1575 20.9932L16.1509 20.9998L16.1575 21.0068L20.9692 25.8185L25.7852 21.0025L25.7875 20.9998L25.7832 20.9975Z" fill="white"/>
<path d="M49.3682 10.177H59.6904C62.2524 10.177 64.1896 10.8345 65.5026 12.1494C66.5187 13.1678 67.0265 14.43 67.0265 15.9357V15.9994C67.0265 16.6357 66.9479 17.198 66.7897 17.6856C66.6318 18.1739 66.4208 18.6134 66.1571 19.0059C65.894 19.3986 65.5882 19.7433 65.2405 20.0398C64.8925 20.3371 64.5187 20.5918 64.1183 20.8035C65.4061 21.2918 66.4198 21.9542 67.1589 22.7922C67.8976 23.6304 68.2675 24.7918 68.2675 26.2763V26.3396C68.2675 27.358 68.0718 28.2487 67.68 29.0127C67.2883 29.776 66.727 30.4125 65.9962 30.9217C65.2654 31.4309 64.3867 31.8124 63.3597 32.0672C62.3326 32.3216 61.1945 32.4487 59.9455 32.4487H49.3682V10.177ZM58.6584 19.181C59.7405 19.181 60.5997 18.9959 61.2356 18.6244C61.8719 18.2532 62.19 17.6537 62.19 16.8268V16.7631C62.19 16.021 61.914 15.4537 61.3627 15.061C60.811 14.6686 60.0155 14.4722 58.9766 14.4722H54.1404V19.181H58.6584ZM59.9631 28.1538C61.0449 28.1538 61.8928 27.9581 62.5084 27.5653C63.1235 27.1729 63.4313 26.5629 63.4313 25.7356V25.6722C63.4313 24.9298 63.1447 24.3413 62.5721 23.9061C61.9992 23.4719 61.0767 23.2543 59.8039 23.2543H54.1404V28.1542H59.9631V28.1538Z" fill="white"/>
<path d="M74.415 10.177H79.3153V32.4493H74.415V10.177Z" fill="white"/>
<path d="M86.7373 10.177H91.2547L101.691 23.8905V10.177H106.527V32.4493H102.36L91.5732 18.2907V32.4493H86.7373V10.177Z" fill="white"/>
<path d="M121.362 10.0181H125.88L135.425 32.4493H130.303L128.266 27.4542H118.848L116.812 32.4493H111.816L121.362 10.0181ZM126.516 23.1265L123.557 15.9042L120.599 23.1265H126.516Z" fill="white"/>
<path d="M140.715 10.177H145.233L155.669 23.8905V10.177H160.505V32.4493H156.337L145.551 18.2907V32.4493H140.715V10.177Z" fill="white"/>
<path d="M178.139 32.8308C176.505 32.8308 174.989 32.5336 173.589 31.9401C172.189 31.3467 170.98 30.5349 169.962 29.5059C168.944 28.4772 168.148 27.2628 167.576 25.8629C167.003 24.4627 166.717 22.9673 166.717 21.3763V21.313C166.717 19.722 167.003 18.2323 167.576 16.8427C168.148 15.4534 168.944 14.2336 169.962 13.1837C170.98 12.1338 172.2 11.3062 173.621 10.7018C175.041 10.0974 176.612 9.79517 178.33 9.79517C179.369 9.79517 180.318 9.88042 181.177 10.0496C182.036 10.2198 182.815 10.4526 183.516 10.7495C184.216 11.0468 184.862 11.4073 185.457 11.8313C186.05 12.2559 186.602 12.7223 187.111 13.2315L183.994 16.8267C183.123 16.0422 182.238 15.4265 181.337 14.9813C180.435 14.5362 179.422 14.3133 178.298 14.3133C177.364 14.3133 176.5 14.4937 175.705 14.8543C174.91 15.2149 174.225 15.7131 173.652 16.3494C173.08 16.9856 172.635 17.7231 172.316 18.5607C171.999 19.3989 171.84 20.2949 171.84 21.2493V21.3126C171.84 22.267 171.999 23.169 172.316 24.0169C172.635 24.8658 173.074 25.6078 173.637 26.2441C174.199 26.8803 174.878 27.3845 175.673 27.7557C176.469 28.1273 177.344 28.3124 178.298 28.3124C179.571 28.3124 180.647 28.0792 181.527 27.6124C182.407 27.1464 183.283 26.5098 184.152 25.7034L187.27 28.8534C186.698 29.4688 186.103 30.0204 185.489 30.5077C184.873 30.996 184.2 31.4147 183.468 31.765C182.736 32.1146 181.935 32.3803 181.066 32.5601C180.196 32.7402 179.22 32.8308 178.139 32.8308Z" fill="white"/>
<path d="M193.038 10.177H209.805V14.5362H197.874V19.0543H208.374V23.4132H197.874V28.0905H209.965V32.4493H193.038V10.177Z" fill="white"/>
</g>
<defs>
<clipPath id="clip0_637_2606">
<rect width="209.655" height="42" fill="white" transform="translate(0.150391)"/>
</clipPath>
</defs>
</svg>
