<svg width="130" height="50" viewBox="0 0 130 50" fill="none" xmlns="http://www.w3.org/2000/svg">
<path d="M9.82697 6.32209C12.2449 6.32209 14.2857 7.18722 15.9494 8.87311C17.6131 10.5812 18.4561 12.7551 18.4561 15.3727C18.4561 17.9902 17.6131 20.1642 15.9494 21.8722C14.2857 23.5803 12.2449 24.4232 9.82697 24.4232C7.63088 24.4232 5.87844 23.6247 4.52529 22.0275V23.913H0V0H4.52529V8.71783C5.85626 7.12067 7.63088 6.32209 9.82697 6.32209ZM5.76752 18.9441C6.74357 19.8092 7.87489 20.2529 9.18367 20.2529C10.4925 20.2529 11.6016 19.8314 12.5333 18.9663C13.465 18.1012 13.9308 16.9255 13.9308 15.3727C13.9308 13.8421 13.465 12.6442 12.5111 11.7791C11.5794 10.9139 10.4481 10.4925 9.13931 10.4925C7.83052 10.4925 6.6992 10.9139 5.74534 11.7791C4.79148 12.622 4.32564 13.8199 4.32564 15.3283C4.30346 16.8811 4.79148 18.079 5.76752 18.9441Z" fill="white"/>
<path d="M26.575 6.83228H22.0054V23.913H26.575V6.83228Z" fill="white"/>
<path d="M42.0362 18.9663L44.8534 21.961C43.2784 23.6025 41.4594 24.4455 39.3521 24.4455C37.045 24.4455 35.2482 23.8022 33.9616 22.5156C32.675 21.229 32.0317 19.4987 32.0317 17.3026V11.4242L33.2074 8.89535L32.0317 6.85453V2.2627H36.6014V17.3026C36.6014 19.1882 37.5774 20.1198 39.5073 20.1198C40.439 20.1198 41.282 19.7427 42.0362 18.9663Z" fill="white"/>
<path d="M53.5269 24.4676C50.5766 24.4676 48.1809 23.3806 46.4062 21.2289L49.4453 18.8332C51.0203 20.142 52.4843 20.8074 53.8818 20.8074C54.7026 20.8074 55.3459 20.6522 55.7896 20.3194C56.2332 19.9867 56.455 19.5874 56.455 19.0994C56.455 18.7223 56.2776 18.4117 55.9227 18.1455C55.5677 17.8793 55.2128 17.6797 54.8579 17.5909C54.503 17.48 53.9262 17.3026 53.1498 17.0807C52.2847 16.8145 51.5748 16.6149 51.0646 16.4596C50.5322 16.3043 49.9333 16.0381 49.2456 15.6388C48.558 15.2617 48.0478 14.7515 47.7372 14.1304C47.4045 13.5093 47.2492 12.7329 47.2492 11.8234C47.2492 10.1153 47.8481 8.76218 49.0682 7.76396C50.2882 6.76573 51.7967 6.27771 53.66 6.27771C56.5438 6.27771 58.7621 7.3203 60.3592 9.42767L57.3645 11.8678C56.3219 10.6255 55.1019 9.98224 53.7266 9.98224C53.0167 9.98224 52.4621 10.1375 52.0629 10.4703C51.6636 10.803 51.4639 11.2023 51.4639 11.6459C51.4639 12.0231 51.6414 12.3336 51.9741 12.622C52.3069 12.8882 52.6618 13.0878 53.0167 13.1766C53.3716 13.2653 53.9484 13.4206 54.7248 13.6424C55.4125 13.842 55.9448 13.9751 56.3219 14.0861C56.6991 14.197 57.1871 14.3744 57.8304 14.6406C58.4515 14.9068 58.9395 15.2174 59.2501 15.5279C59.5606 15.8607 59.849 16.2821 60.1152 16.8367C60.3814 17.3913 60.4923 18.0124 60.4923 18.7223C60.4923 20.4303 59.8712 21.8278 58.6068 22.8926C57.3202 23.9352 55.6343 24.4676 53.5269 24.4676Z" fill="white"/>
<path d="M76.6192 12.4667C75.377 11.1801 73.9351 10.5368 72.3602 10.5368C71.0514 10.5368 69.9422 10.9805 69.0327 11.89C68.1232 12.7773 67.6574 13.9974 67.6574 15.5058C67.6574 16.9033 68.1232 18.0346 69.0771 18.8776C70.0088 19.7427 71.1623 20.1642 72.4932 20.1642C74.1348 20.1642 75.5988 19.5431 76.8411 18.323L79.7026 21.0071C77.7284 23.2919 75.2883 24.4233 72.3602 24.4233C69.676 24.4233 67.4799 23.5803 65.7497 21.8722C64.0194 20.1864 63.1543 18.0124 63.1543 15.3949C63.1543 12.7773 64.0194 10.6034 65.7719 8.87313C67.5243 7.14287 69.7426 6.29993 72.4045 6.29993C75.2883 6.29993 77.6618 7.40907 79.5252 9.62735L76.6192 12.4667Z" fill="white"/>
<path d="M95.0309 6.83235H99.5562V23.9131H95.0309V22.0276C93.6999 23.6247 91.9253 24.4233 89.7292 24.4233C87.3113 24.4233 85.2705 23.5804 83.6068 21.8723C81.943 20.1642 81.1001 18.0125 81.1001 15.3727C81.1001 12.7552 81.943 10.5812 83.6068 8.87316C85.2705 7.16509 87.3113 6.32214 89.7292 6.32214C91.9253 6.32214 93.6777 7.12072 95.0309 8.71788V6.83235ZM87.0229 18.9663C87.9546 19.8315 89.0637 20.2529 90.3725 20.2529C91.6813 20.2529 92.8126 19.8093 93.7886 18.9441C94.7647 18.079 95.2305 16.8812 95.2305 15.3727C95.2305 13.8421 94.7425 12.6442 93.8108 11.7791C92.857 10.9362 91.7257 10.4925 90.4169 10.4925C89.1081 10.4925 87.9768 10.914 87.0451 11.7791C86.1134 12.6442 85.6254 13.8199 85.6254 15.3727C85.6254 16.9255 86.0912 18.1012 87.0229 18.9663Z" fill="white"/>
<path d="M108.851 0H104.281V23.913H108.851V0Z" fill="white"/>
<path d="M129.814 14.7294C129.814 15.4614 129.747 16.1713 129.636 16.8589L116.859 16.9033C117.17 18.079 117.769 19.0107 118.634 19.7427C119.499 20.4747 120.586 20.8297 121.895 20.8297C123.403 20.8297 125 20.2085 126.686 18.9885L129.126 21.6282C127.218 23.4694 124.756 24.4011 121.739 24.4011C118.966 24.4011 116.726 23.5581 114.996 21.8501C113.266 20.142 112.4 17.9459 112.4 15.284C112.4 12.6442 113.243 10.4703 114.951 8.80658C116.637 7.14287 118.811 6.29993 121.473 6.29993C124.002 6.29993 126.043 7.05414 127.551 8.58475C129.037 10.1375 129.814 12.1784 129.814 14.7294ZM121.451 9.91572C120.364 9.91572 119.41 10.2263 118.589 10.8252C117.769 11.4463 117.214 12.2671 116.926 13.3319H125.599C125.377 12.2449 124.889 11.402 124.157 10.803C123.381 10.2041 122.494 9.91572 121.451 9.91572Z" fill="white"/>
<path d="M42.3248 6.83228H32.0542V11.4019H42.3248V6.83228Z" fill="url(#paint0_linear_736_465)"/>
<path d="M63.1323 39.9733C63.1323 36.8234 65.5059 34.5164 68.5449 34.5164C70.9185 34.5164 72.9149 35.9582 73.5804 38.2209H72.5156C71.9611 36.5794 70.4305 35.4702 68.5671 35.4702C66.0826 35.4702 64.1749 37.3779 64.1749 39.9733C64.1749 42.5687 66.0826 44.4764 68.5449 44.4764C70.4305 44.4764 71.9611 43.3451 72.5156 41.7258H73.5804C72.9371 44.0106 70.8963 45.4303 68.5449 45.4303C65.5059 45.4303 63.1323 43.1233 63.1323 39.9733Z" fill="white"/>
<path d="M85.914 34.716V45.2306H84.8936V42.724C84.0728 44.3433 82.4756 45.4303 80.5014 45.4303C77.5511 45.4303 75.5103 43.1233 75.5103 39.9733C75.5103 36.8234 77.5733 34.5164 80.4792 34.5164C82.4756 34.5164 84.0728 35.6033 84.8936 37.2448V34.716H85.914ZM84.9158 39.9733C84.9158 37.3779 83.0524 35.4702 80.6345 35.4702C78.2166 35.4702 76.5307 37.3558 76.5307 39.9733C76.5307 42.5687 78.2166 44.4542 80.6345 44.4542C83.0746 44.4542 84.9158 42.5909 84.9158 39.9733Z" fill="white"/>
<path d="M99.5566 39.9734C99.5566 43.1233 97.5158 45.4303 94.5876 45.4303C92.5912 45.4303 90.994 44.3434 90.1732 42.7018V50H89.1528V34.716H90.1732V37.2449C90.994 35.6033 92.5912 34.5164 94.5876 34.5164C97.4936 34.4942 99.5566 36.8234 99.5566 39.9734ZM98.5362 39.9734C98.5362 37.378 96.8725 35.4702 94.4324 35.4702C92.0144 35.4702 90.1511 37.3558 90.1511 39.9734C90.1511 42.5909 92.0144 44.4543 94.4324 44.4543C96.8503 44.4543 98.5362 42.5687 98.5362 39.9734Z" fill="white"/>
<path d="M103.217 34.7161H102.196V45.2307H103.217V34.7161Z" fill="white"/>
<path d="M113.776 44.8313C113.243 45.0975 112.178 45.4524 111.091 45.4524C108.762 45.4524 107.409 43.8997 107.409 41.2377V35.6698H105.302V34.716H107.409V32.0762H108.43V34.716H113.576V35.6698H108.43V41.1934C108.43 43.2564 109.339 44.4764 111.269 44.4764C112.068 44.4764 112.866 44.2768 113.598 43.9662L113.776 44.8313Z" fill="white"/>
<path d="M125.555 34.716V45.2306H124.534V42.724C123.713 44.3433 122.116 45.4303 120.142 45.4303C117.192 45.4303 115.151 43.1233 115.151 39.9733C115.151 36.8234 117.214 34.5164 120.12 34.5164C122.116 34.5164 123.713 35.6033 124.534 37.2448V34.716H125.555ZM124.579 39.9733C124.579 37.3779 122.715 35.4702 120.297 35.4702C117.879 35.4702 116.193 37.3558 116.193 39.9733C116.193 42.5687 117.879 44.4542 120.297 44.4542C122.715 44.4542 124.579 42.5909 124.579 39.9733Z" fill="white"/>
<path d="M129.814 30.5013H128.771V45.2085H129.814V30.5013Z" fill="white"/>
<path d="M42.3026 6.83228H37.7329V11.4019H42.3026V6.83228Z" fill="white"/>
<defs>
<linearGradient id="paint0_linear_736_465" x1="32.095" y1="9.12784" x2="41.073" y2="9.12784" gradientUnits="userSpaceOnUse">
<stop stop-color="#FFFFFE"/>
<stop offset="1"/>
</linearGradient>
</defs>
</svg>
