<svg width="45" height="45" viewBox="0 0 45 45" fill="none" xmlns="http://www.w3.org/2000/svg">
<path d="M33.9541 12.0937C31.818 11.1156 29.5339 10.4048 27.146 10C26.8527 10.5189 26.5101 11.2168 26.2739 11.772C23.7354 11.3984 21.2203 11.3984 18.7286 11.772C18.4924 11.2168 18.142 10.5189 17.8461 10C15.4556 10.4048 13.1689 11.1182 11.0328 12.0989C6.72413 18.4709 5.55613 24.6845 6.14014 30.81C8.99785 32.8985 11.7673 34.1672 14.49 34.9974C15.1623 34.092 15.7619 33.1294 16.2784 32.115C15.2947 31.7492 14.3525 31.2978 13.4622 30.7737C13.6984 30.6024 13.9294 30.4234 14.1526 30.2392C19.5825 32.7247 25.4822 32.7247 30.8473 30.2392C31.0731 30.4234 31.3041 30.6024 31.5377 30.7737C30.6448 31.3003 29.7 31.7518 28.7163 32.1176C29.2328 33.1294 29.8298 34.0946 30.5046 35C33.23 34.1698 36.002 32.9011 38.8597 30.81C39.545 23.709 37.6892 17.5524 33.9541 12.0937ZM17.0181 27.0429C15.3881 27.0429 14.0514 25.5537 14.0514 23.7402C14.0514 21.9267 15.3596 20.4349 17.0181 20.4349C18.6767 20.4349 20.0134 21.924 19.9849 23.7402C19.9874 25.5537 18.6767 27.0429 17.0181 27.0429ZM27.9818 27.0429C26.3518 27.0429 25.015 25.5537 25.015 23.7402C25.015 21.9267 26.3232 20.4349 27.9818 20.4349C29.6403 20.4349 30.977 21.924 30.9485 23.7402C30.9485 25.5537 29.6403 27.0429 27.9818 27.0429Z" fill="url(#paint0_linear_592_2322)"/>
<defs>
<linearGradient id="paint0_linear_592_2322" x1="22.5" y1="10" x2="22.5" y2="35" gradientUnits="userSpaceOnUse">
<stop stop-color="#FFFFDA"/>
<stop offset="1" stop-color="#FFFFDA" stop-opacity="0.22"/>
</linearGradient>
</defs>
</svg>
