<svg width="33" height="26" viewBox="0 0 33 26" fill="none" xmlns="http://www.w3.org/2000/svg">
<path d="M27.9541 2.37768C25.818 1.39956 23.5339 0.688704 21.146 0.283936C20.8527 0.802834 20.5101 1.50076 20.2739 2.05596C17.7354 1.68236 15.2203 1.68236 12.7286 2.05596C12.4924 1.50076 12.142 0.802834 11.8461 0.283936C9.45561 0.688704 7.16891 1.40217 5.03277 2.38286C0.724134 8.7548 -0.443865 14.9685 0.140135 21.0939C2.99785 23.1824 5.76731 24.4512 8.49004 25.2814C9.1623 24.3759 9.76186 23.4134 10.2784 22.3989C9.29466 22.0331 8.35248 21.5817 7.46223 21.0576C7.69841 20.8864 7.92943 20.7074 8.15262 20.5231C13.5825 23.0086 19.4822 23.0086 24.8473 20.5231C25.0731 20.7074 25.3041 20.8864 25.5377 21.0576C24.6448 21.5843 23.7 22.0357 22.7163 22.4016C23.2328 23.4134 23.8298 24.3785 24.5046 25.2839C27.23 24.4537 30.002 23.1851 32.8597 21.0939C33.545 13.993 31.6892 7.83636 27.9541 2.37768ZM11.0181 17.3268C9.38812 17.3268 8.05138 15.8376 8.05138 14.0241C8.05138 12.2106 9.35957 10.7188 11.0181 10.7188C12.6767 10.7188 14.0134 12.208 13.9849 14.0241C13.9874 15.8376 12.6767 17.3268 11.0181 17.3268ZM21.9818 17.3268C20.3518 17.3268 19.015 15.8376 19.015 14.0241C19.015 12.2106 20.3232 10.7188 21.9818 10.7188C23.6403 10.7188 24.977 12.208 24.9485 14.0241C24.9485 15.8376 23.6403 17.3268 21.9818 17.3268Z" fill="url(#paint0_radial_736_1197)"/>
<defs>
<radialGradient id="paint0_radial_736_1197" cx="0" cy="0" r="1" gradientUnits="userSpaceOnUse" gradientTransform="translate(18.2745 -0.819012) rotate(89.5974) scale(44.3026 58.8792)">
<stop stop-color="white"/>
<stop offset="1" stop-color="white" stop-opacity="0.23"/>
</radialGradient>
</defs>
</svg>
