<svg width="31" height="26" viewBox="0 0 31 26" fill="none" xmlns="http://www.w3.org/2000/svg">
<path d="M1 13L0.74728 11.5214L0.747279 14.4786L1 13ZM31 11.5L2.26761 11.5L2.26761 14.5L31 14.5L31 11.5ZM1 13C0.747279 14.4786 0.746858 14.4785 0.746492 14.4784C0.746448 14.4784 0.746139 14.4784 0.746049 14.4783C0.745868 14.4783 0.745914 14.4783 0.746187 14.4784C0.74673 14.4785 0.74818 14.4787 0.75052 14.4791C0.755199 14.48 0.763437 14.4814 0.775117 14.4835C0.798482 14.4878 0.835603 14.4947 0.885562 14.5044C0.985507 14.5237 1.13665 14.5542 1.33165 14.5971C1.72198 14.6829 2.28614 14.8177 2.9658 15.0114C4.33081 15.4002 6.13348 16.018 7.92121 16.9347C11.5674 18.8044 14.7113 21.6658 14.7113 26L17.7113 26C17.7113 19.9342 13.2495 16.2956 9.29007 14.2653C7.27498 13.232 5.27483 12.5498 3.78773 12.1261C3.04133 11.9135 2.41711 11.764 1.97557 11.667C1.75464 11.6184 1.57898 11.5829 1.4561 11.5591C1.39465 11.5472 1.34636 11.5382 1.31216 11.532C1.29506 11.5289 1.28148 11.5265 1.27154 11.5247C1.26656 11.5238 1.2625 11.5231 1.25936 11.5226C1.25779 11.5223 1.25645 11.5221 1.25535 11.5219C1.25479 11.5218 1.25414 11.5217 1.25386 11.5216C1.25326 11.5215 1.25273 11.5214 1 13ZM1 13C1.25273 14.4786 1.25326 14.4785 1.25386 14.4784C1.25414 14.4783 1.25479 14.4782 1.25535 14.4781C1.25645 14.4779 1.25779 14.4777 1.25936 14.4774C1.2625 14.4769 1.26656 14.4762 1.27154 14.4753C1.28148 14.4735 1.29506 14.4711 1.31216 14.468C1.34636 14.4618 1.39465 14.4528 1.4561 14.4409C1.57898 14.4171 1.75464 14.3816 1.97557 14.333C2.41711 14.236 3.04133 14.0865 3.78773 13.8739C5.27483 13.4502 7.27498 12.768 9.29007 11.7347C13.2495 9.70444 17.7113 6.06581 17.7113 -5.80869e-07L14.7113 -7.12003e-07C14.7113 4.33419 11.5674 7.19556 7.92121 9.06525C6.13348 9.98196 4.33081 10.5998 2.9658 10.9886C2.28614 11.1823 1.72198 11.3171 1.33165 11.4029C1.13665 11.4458 0.985507 11.4763 0.885562 11.4956C0.835603 11.5053 0.798482 11.5122 0.775117 11.5165C0.763437 11.5186 0.755199 11.52 0.75052 11.5209C0.74818 11.5213 0.74673 11.5215 0.746187 11.5216C0.745914 11.5217 0.745868 11.5217 0.746049 11.5217C0.746139 11.5216 0.746448 11.5216 0.746492 11.5216C0.746858 11.5215 0.74728 11.5214 1 13Z" fill="url(#paint0_linear_1111_339)"/>
<defs>
<linearGradient id="paint0_linear_1111_339" x1="31" y1="13" x2="1" y2="13" gradientUnits="userSpaceOnUse">
<stop stop-color="#FEFFDA" stop-opacity="0"/>
<stop offset="1" stop-color="#FEFFDA"/>
</linearGradient>
</defs>
</svg>
