<svg width="31" height="26" viewBox="0 0 31 26" fill="none" xmlns="http://www.w3.org/2000/svg">
<path d="M30 13L30.2527 11.5214L30.2527 14.4786L30 13ZM5.02681e-07 11.5L28.7324 11.5L28.7324 14.5L6.33815e-07 14.5L5.02681e-07 11.5ZM30 13C30.2527 14.4786 30.2531 14.4785 30.2535 14.4784C30.2536 14.4784 30.2539 14.4784 30.254 14.4783C30.2541 14.4783 30.2541 14.4783 30.2538 14.4784C30.2533 14.4785 30.2518 14.4787 30.2495 14.4791C30.2448 14.48 30.2366 14.4814 30.2249 14.4835C30.2015 14.4878 30.1644 14.4947 30.1144 14.5044C30.0145 14.5237 29.8634 14.5542 29.6683 14.5971C29.278 14.6829 28.7139 14.8177 28.0342 15.0114C26.6692 15.4002 24.8665 16.018 23.0788 16.9347C19.4326 18.8044 16.2887 21.6658 16.2887 26L13.2887 26C13.2887 19.9342 17.7505 16.2956 21.7099 14.2653C23.725 13.232 25.7252 12.5498 27.2123 12.1261C27.9587 11.9135 28.5829 11.764 29.0244 11.667C29.2454 11.6184 29.421 11.5829 29.5439 11.5591C29.6053 11.5472 29.6536 11.5382 29.6878 11.532C29.7049 11.5289 29.7185 11.5265 29.7285 11.5247C29.7334 11.5238 29.7375 11.5231 29.7406 11.5226C29.7422 11.5223 29.7435 11.5221 29.7447 11.5219C29.7452 11.5218 29.7459 11.5217 29.7461 11.5216C29.7467 11.5215 29.7473 11.5214 30 13ZM30 13C29.7473 14.4786 29.7467 14.4785 29.7461 14.4784C29.7459 14.4783 29.7452 14.4782 29.7447 14.4781C29.7435 14.4779 29.7422 14.4777 29.7406 14.4774C29.7375 14.4769 29.7334 14.4762 29.7285 14.4753C29.7185 14.4735 29.7049 14.4711 29.6878 14.468C29.6536 14.4618 29.6053 14.4528 29.5439 14.4409C29.421 14.4171 29.2454 14.3816 29.0244 14.333C28.5829 14.236 27.9587 14.0865 27.2123 13.8739C25.7252 13.4502 23.725 12.768 21.7099 11.7347C17.7505 9.70444 13.2887 6.06581 13.2887 -5.80869e-07L16.2887 -7.12003e-07C16.2887 4.33419 19.4326 7.19556 23.0788 9.06525C24.8665 9.98196 26.6692 10.5998 28.0342 10.9886C28.7139 11.1823 29.278 11.3171 29.6683 11.4029C29.8634 11.4458 30.0145 11.4763 30.1144 11.4956C30.1644 11.5053 30.2015 11.5122 30.2249 11.5165C30.2366 11.5186 30.2448 11.52 30.2495 11.5209C30.2518 11.5213 30.2533 11.5215 30.2538 11.5216C30.2541 11.5217 30.2541 11.5217 30.254 11.5217C30.2539 11.5216 30.2536 11.5216 30.2535 11.5216C30.2531 11.5215 30.2527 11.5214 30 13Z" fill="url(#paint0_linear_1111_171)"/>
<defs>
<linearGradient id="paint0_linear_1111_171" x1="5.68248e-07" y1="13" x2="30" y2="13" gradientUnits="userSpaceOnUse">
<stop stop-color="#FEFFDA" stop-opacity="0"/>
<stop offset="1" stop-color="#FEFFDA"/>
</linearGradient>
</defs>
</svg>
