<svg width="45" height="45" viewBox="0 0 45 45" fill="none" xmlns="http://www.w3.org/2000/svg">
<path fill-rule="evenodd" clip-rule="evenodd" d="M20.3234 39.26V39.2601C12.1339 37.9848 5.86957 30.9518 5.86957 22.4667C5.86957 13.0778 13.5391 5.46665 23 5.46665C32.4609 5.46665 40.1304 13.0778 40.1304 22.4667C40.1304 30.9518 33.8661 37.9848 25.6766 39.2601V27.3807H29.6682L30.4277 22.4667H30.4276L30.4276 22.4666H25.6766L25.6766 19.2777C25.6766 17.9333 26.3403 16.6229 28.4683 16.6229H30.6284V12.4393L30.6284 12.4392C30.6284 12.4392 28.668 12.1072 26.7938 12.1072C23.2208 12.1072 20.7781 14.0694 20.3805 17.6541C20.3427 17.9952 20.3234 18.351 20.3234 18.7212V22.4666H15.9738L15.9738 22.4667L15.9738 27.3806L15.9738 27.3807H20.3234L20.3234 39.26" fill="url(#paint0_linear_1308_5561)"/>
<defs>
<linearGradient id="paint0_linear_1308_5561" x1="23" y1="44" x2="23" y2="0.5" gradientUnits="userSpaceOnUse">
<stop stop-color="#FFFFDA" stop-opacity="0.22"/>
<stop offset="1" stop-color="#FFFFDA"/>
</linearGradient>
</defs>
</svg>
