<svg width="123" height="40" viewBox="0 0 123 40" fill="none" xmlns="http://www.w3.org/2000/svg">
<path fill-rule="evenodd" clip-rule="evenodd" d="M0.358895 19.8425H0.358887V26.7717H0.358895L0.358894 40H7.28803L7.28803 26.7717H27.1306V19.8425H7.28803H0.358895Z" fill="white"/>
<path d="M0.358887 0H27.1306V6.92914H7.28803L0.358887 0Z" fill="white"/>
<path d="M42.9805 2.22449V6.57143H49.7448V8.81633H42.9805V14.2857H40.3789V0H50.6053V2.22449H42.9805Z" fill="white"/>
<path d="M59.145 14.4898C57.2105 14.4898 55.7029 13.9388 54.6222 12.8367C53.5415 11.7211 53.0012 10.1293 53.0012 8.06122V0H55.6028V7.95918C55.6028 10.7619 56.7902 12.1633 59.1651 12.1633C61.5265 12.1633 62.7073 10.7619 62.7073 7.95918V0H65.2689V8.06122C65.2689 10.1293 64.7285 11.7211 63.6479 12.8367C62.5805 13.9388 61.0796 14.4898 59.145 14.4898Z" fill="white"/>
<path d="M71.5001 2.2449H66.8572V0H78.7447V2.2449H74.1018V14.2857H71.5001V2.2449Z" fill="white"/>
<path d="M86.4669 14.4898C84.5323 14.4898 83.0247 13.9388 81.944 12.8367C80.8633 11.7211 80.323 10.1293 80.323 8.06122V0H82.9246V7.95918C82.9246 10.7619 84.1121 12.1633 86.4869 12.1633C88.8484 12.1633 90.0291 10.7619 90.0291 7.95918V0H92.5907V8.06122C92.5907 10.1293 92.0504 11.7211 90.9697 12.8367C89.9023 13.9388 88.4014 14.4898 86.4669 14.4898Z" fill="white"/>
<path d="M105.4 14.2857L102.538 10.102C102.418 10.1156 102.238 10.1224 101.998 10.1224H98.8359V14.2857H96.2342V0H101.998C103.212 0 104.266 0.204082 105.16 0.612245C106.067 1.02041 106.761 1.60544 107.241 2.36735C107.721 3.12925 107.962 4.03401 107.962 5.08163C107.962 6.15646 107.701 7.08163 107.181 7.85714C106.674 8.63265 105.94 9.21089 104.98 9.59184L108.202 14.2857H105.4ZM105.34 5.08163C105.34 4.17007 105.046 3.46939 104.459 2.97959C103.872 2.4898 103.012 2.2449 101.878 2.2449H98.8359V7.93878H101.878C103.012 7.93878 103.872 7.69388 104.459 7.20408C105.046 6.70068 105.34 5.9932 105.34 5.08163Z" fill="white"/>
<path d="M121.379 12.0612V14.2857H110.872V0H121.099V2.22449H113.474V5.93878H120.238V8.12245H113.474V12.0612H121.379Z" fill="white"/>
<path d="M53.247 39.7959L53.227 30.3265L48.6241 38.1633H47.4633L42.8605 30.449V39.7959H40.3789V25.5102H42.5202L48.0837 34.9796L53.5472 25.5102H55.6885L55.7085 39.7959H53.247Z" fill="white"/>
<path d="M66.0366 40C64.609 40 63.3215 39.6871 62.1741 39.0612C61.0267 38.4218 60.1262 37.5442 59.4724 36.4286C58.8187 35.2993 58.4918 34.0408 58.4918 32.6531C58.4918 31.2653 58.8187 30.0136 59.4724 28.898C60.1262 27.7687 61.0267 26.8912 62.1741 26.2653C63.3215 25.6259 64.609 25.3061 66.0366 25.3061C67.4641 25.3061 68.7516 25.6259 69.899 26.2653C71.0464 26.8912 71.9469 27.7619 72.6007 28.8776C73.2544 29.9932 73.5813 31.2517 73.5813 32.6531C73.5813 34.0544 73.2544 35.3129 72.6007 36.4286C71.9469 37.5442 71.0464 38.4218 69.899 39.0612C68.7516 39.6871 67.4641 40 66.0366 40ZM66.0366 37.6735C66.9705 37.6735 67.811 37.4626 68.5581 37.0408C69.3053 36.6054 69.8923 36.0068 70.3192 35.2449C70.7462 34.4694 70.9596 33.6054 70.9596 32.6531C70.9596 31.7007 70.7462 30.8435 70.3192 30.0816C69.8923 29.3061 69.3053 28.7075 68.5581 28.2857C67.811 27.8503 66.9705 27.6327 66.0366 27.6327C65.1026 27.6327 64.2621 27.8503 63.515 28.2857C62.7678 28.7075 62.1808 29.3061 61.7539 30.0816C61.3269 30.8435 61.1135 31.7007 61.1135 32.6531C61.1135 33.6054 61.3269 34.4694 61.7539 35.2449C62.1808 36.0068 62.7678 36.6054 63.515 37.0408C64.2621 37.4626 65.1026 37.6735 66.0366 37.6735Z" fill="white"/>
<path d="M88.7868 25.5102V39.7959H86.6454L78.9206 30.1224V39.7959H76.3389V25.5102H78.4803L86.2051 35.1837V25.5102H88.7868Z" fill="white"/>
<path d="M103.047 37.5714V39.7959H92.5405V25.5102H102.767V27.7347H95.1421V31.449H101.906V33.6327H95.1421V37.5714H103.047Z" fill="white"/>
<path d="M111.835 34.7551V39.7959H109.233V34.7959L103.73 25.5102H106.511L110.614 32.4694L114.757 25.5102H117.318L111.835 34.7551Z" fill="white"/>
</svg>
