<svg width="80" height="80" viewBox="0 0 80 80" fill="none" xmlns="http://www.w3.org/2000/svg">
<path d="M74 40C63.9437 40 40 15.9178 40 6C40 15.9178 16.0563 40 6 40C16.0563 40 40 64.0822 40 74C40 64.0822 63.9437 40 74 40Z" fill="url(#paint0_linear_1099_11274)" fill-opacity="0.5" stroke="url(#paint1_linear_1099_11274)" stroke-width="2" stroke-linecap="square"/>
<path d="M40 49L39.015 49.1727H40.985L40 49ZM39 31V48.2394H41V31H39ZM40 49C40.985 49.1727 40.9849 49.173 40.9849 49.1732C40.9849 49.1733 40.9848 49.1735 40.9848 49.1736C40.9848 49.1737 40.9848 49.1738 40.9848 49.1736C40.9848 49.1734 40.985 49.1727 40.9852 49.1714C40.9857 49.1688 40.9865 49.1641 40.9878 49.1573C40.9903 49.1437 40.9945 49.1219 41.0004 49.0924C41.0121 49.0333 41.0306 48.9437 41.0568 48.8277C41.1091 48.5956 41.1915 48.2595 41.3099 47.8544C41.5477 47.0404 41.9253 45.9663 42.4851 44.9021C43.6255 42.7337 45.364 40.8732 48 40.8732V38.8732C44.236 38.8732 41.9745 41.5762 40.7149 43.9711C40.0746 45.1886 39.6523 46.3962 39.3901 47.2935C39.2585 47.744 39.1659 48.1209 39.1057 48.388C39.0756 48.5216 39.0535 48.628 39.0387 48.7026C39.0313 48.74 39.0257 48.7694 39.0218 48.7904C39.0198 48.8008 39.0183 48.8092 39.0172 48.8154C39.0166 48.8185 39.0161 48.821 39.0158 48.823C39.0156 48.824 39.0155 48.8249 39.0153 48.8256C39.0153 48.826 39.0152 48.8264 39.0152 48.8266C39.0151 48.827 39.015 48.8273 40 49ZM40 49C40.985 48.8273 40.9849 48.827 40.9848 48.8266C40.9848 48.8264 40.9847 48.826 40.9847 48.8256C40.9845 48.8249 40.9844 48.824 40.9842 48.823C40.9839 48.821 40.9834 48.8185 40.9828 48.8154C40.9817 48.8092 40.9802 48.8008 40.9782 48.7904C40.9743 48.7694 40.9687 48.74 40.9613 48.7026C40.9465 48.628 40.9244 48.5216 40.8943 48.388C40.8341 48.1209 40.7415 47.744 40.6099 47.2935C40.3477 46.3962 39.9253 45.1886 39.2851 43.9711C38.0255 41.5762 35.764 38.8732 32 38.8732V40.8732C34.636 40.8732 36.3745 42.7337 37.5149 44.9021C38.0747 45.9663 38.4523 47.0404 38.6901 47.8544C38.8085 48.2595 38.8909 48.5956 38.9432 48.8277C38.9694 48.9437 38.9879 49.0333 38.9996 49.0924C39.0055 49.1219 39.0097 49.1437 39.0122 49.1573C39.0135 49.1641 39.0143 49.1688 39.0148 49.1714C39.015 49.1727 39.0152 49.1734 39.0152 49.1736C39.0152 49.1738 39.0152 49.1737 39.0152 49.1736C39.0152 49.1735 39.0151 49.1733 39.0151 49.1732C39.0151 49.173 39.015 49.1727 40 49Z" fill="url(#paint2_linear_1099_11274)"/>
<defs>
<linearGradient id="paint0_linear_1099_11274" x1="40" y1="6" x2="40" y2="74" gradientUnits="userSpaceOnUse">
<stop stop-color="#922020"/>
<stop offset="1" stop-color="#8C0000"/>
</linearGradient>
<linearGradient id="paint1_linear_1099_11274" x1="34.3333" y1="78.1249" x2="34.3335" y2="-162.291" gradientUnits="userSpaceOnUse">
<stop stop-color="#FF0000" stop-opacity="0.6"/>
<stop offset="0.421967" stop-opacity="0"/>
</linearGradient>
<linearGradient id="paint2_linear_1099_11274" x1="40" y1="31" x2="40" y2="49" gradientUnits="userSpaceOnUse">
<stop stop-color="#FEFFDA" stop-opacity="0"/>
<stop offset="1" stop-color="#FEFFDA"/>
</linearGradient>
</defs>
</svg>
