<svg width="162" height="60" viewBox="0 0 162 60" fill="none" xmlns="http://www.w3.org/2000/svg">
<g clip-path="url(#clip0_637_2607)">
<path d="M65.0405 15.0001H71.464V40.7144H77.8875V8.57153H71.464C67.9311 8.57153 65.0405 11.4644 65.0405 15.0001Z" fill="white"/>
<path d="M84.311 40.7145H90.7346V27.8573C90.7346 24.3216 87.8439 21.4287 84.311 21.4287V40.7145Z" fill="white"/>
<path d="M97.1582 21.4287V40.7145H103.582V27.8573H110.005V34.2858C110.005 37.8216 112.896 40.7145 116.429 40.7145V27.8573C116.429 24.3216 113.539 21.4287 110.005 21.4287H97.1582Z" fill="white"/>
<path d="M154.97 21.4287H148.546V15.0001C148.546 11.4644 145.656 8.57153 142.123 8.57153V34.2858H129.276V27.8572H135.7V21.4287H129.276C125.743 21.4287 122.852 24.3215 122.852 27.8572V34.2858C122.852 37.8216 125.743 40.7144 129.276 40.7144H148.546V27.8572H154.97V34.2858C154.97 37.8216 157.861 40.7144 161.393 40.7144V27.8572C161.393 24.3215 158.503 21.4287 154.97 21.4287Z" fill="white"/>
<path d="M84.311 15.0001H90.7346C90.7346 11.4644 87.8439 8.57153 84.311 8.57153V15.0001Z" fill="white"/>
<path fill-rule="evenodd" clip-rule="evenodd" d="M75.0556 47.1432V51.2983H74.467L72.155 48.4194V51.2983H71.4644V47.1432H72.0529L74.365 50.034V47.1432H75.0556ZM88.1221 51.2983H85.6299V47.1432H88.062V47.8257H86.3685V48.8586H87.8819V49.5413H86.3685V50.6156H88.1221V51.2983ZM98.6964 47.8257H100.06V51.2983H100.798V47.8257H102.161V47.1432H98.6964V47.8257ZM117.882 47.1432H118.591L117.39 51.2983H116.699L115.684 48.2947L114.688 51.2983H113.991L112.735 47.1432H113.564L114.411 50.1052L115.348 47.1432H116.081L117.041 50.1111L117.882 47.1432ZM129.778 47.7605C129.37 48.1721 129.165 48.6805 129.165 49.286C129.165 49.9232 129.372 50.4395 129.784 50.8353C130.197 51.231 130.719 51.4289 131.351 51.4289C131.98 51.4289 132.502 51.2271 132.919 50.8234C133.335 50.4197 133.543 49.9073 133.543 49.286C133.543 48.6529 133.335 48.1364 132.919 47.7367C132.507 47.341 131.984 47.1432 131.351 47.1432C130.719 47.1432 130.194 47.349 129.778 47.7605ZM130.349 50.3307C130.08 50.0537 129.947 49.7055 129.947 49.286C129.947 48.8586 130.079 48.5084 130.342 48.2354C130.611 47.9623 130.947 47.8257 131.351 47.8257C131.748 47.8257 132.082 47.9623 132.354 48.2354C132.627 48.5124 132.763 48.8626 132.763 49.286C132.763 49.7055 132.634 50.0537 132.379 50.3307C132.127 50.6077 131.784 50.7463 131.351 50.7463C130.951 50.7463 130.617 50.6077 130.349 50.3307ZM144.857 49.755V51.3102H144.118V47.1551C144.325 47.1551 144.552 47.1531 144.797 47.1491C145.04 47.1452 145.241 47.1432 145.397 47.1432C146.413 47.1432 146.922 47.5705 146.922 48.4253C146.922 48.7419 146.84 49.0031 146.675 49.2089C146.512 49.4067 146.323 49.5413 146.111 49.6125L147.427 51.3102H146.532L145.373 49.755H144.857ZM145.361 47.8257C145.341 47.8257 145.309 47.8277 145.264 47.8317C145.221 47.8317 145.159 47.8337 145.079 47.8376H144.857V49.0723H145.337C145.573 49.0723 145.765 49.015 145.913 48.9002C146.065 48.7854 146.141 48.6291 146.141 48.4313C146.141 48.0276 145.881 47.8257 145.361 47.8257ZM158.001 51.2983H158.739V49.1554L160.457 51.2983H161.393L159.555 49.0783L161.286 47.1432H160.397L158.739 49.1139V47.1432H158.001V51.2983Z" fill="white"/>
<path d="M15.7146 32.7353L17.2134 21.4384L4.19238 12.3915L16.0893 16.4227L18.8996 12.1103L29.1572 5.73523L51.7801 18.2039L52.951 37.2353L42.8807 51.2508L34.9183 52.4696L39.0401 44.9227V37.6571L36.0424 31.9853L32.998 29.9696L28.3141 34.7977V39.9071L24.6607 43.3289L20.0237 43.8915L17.9629 45.0634L14.5905 43.9853L13.1853 38.9227L15.7146 35.3603V32.7353Z" fill="white"/>
<path d="M36.5109 12.2977C34.0285 11.7821 31.3118 11.9227 31.3118 11.9227C31.3118 11.9227 30.4219 16.0477 24.895 17.1258C24.9418 17.1258 32.2018 19.6102 36.5109 12.2977Z" fill="#94A6C3"/>
<path d="M38.7593 49.704C41.7569 47.3602 44.0051 44.1258 45.0356 40.4696C45.0825 40.329 45.504 40.0946 45.785 39.9071C46.2534 39.6258 46.7218 39.3915 46.8155 39.0165C47.0028 37.9383 47.0965 36.8133 47.0965 35.6883C47.0965 35.2665 46.6749 34.8446 46.2534 34.4227C45.9256 34.1415 45.5977 33.8133 45.5977 33.579C45.1293 29.3133 43.1621 25.329 40.0239 22.4227L39.696 22.7508C42.7406 25.6102 44.7078 29.5008 45.1293 33.6258C45.1761 34.0008 45.5508 34.3758 45.9256 34.7508C46.2534 35.0321 46.6281 35.454 46.6281 35.6415C46.6281 36.7196 46.5345 37.7977 46.3471 38.8758C46.3003 39.0633 45.8787 39.2508 45.5508 39.4383C45.0825 39.6727 44.6609 39.9071 44.5673 40.2821C43.4431 44.2665 40.867 47.7352 37.4478 49.9852C38.0567 48.6727 39.9771 44.4071 41.0076 42.2508L40.8201 35.3133L34.8717 29.5477L31.4994 30.0165L27.7991 36.0165C27.7991 36.0165 29.5321 38.2196 27.0966 40.7977C24.7078 43.329 22.8343 43.8915 22.8343 43.8915L21.1013 42.954C21.6165 42.2977 22.6469 41.3133 23.4431 40.6571C24.8015 39.5321 26.1598 39.4383 26.1598 38.2196C26.2067 35.6883 23.49 36.3915 23.49 36.3915L22.5065 37.329L22.0849 40.7977L20.024 43.3758L19.7898 43.329L16.4175 42.579C16.4175 42.579 18.4784 41.5008 18.8063 40.2821C19.134 39.1102 18.1505 35.2196 18.1036 34.9852C18.1505 35.0321 19.0873 35.829 19.5088 37.1415C20.2581 35.079 21.2418 33.1102 21.5228 32.9227C21.8038 32.7352 25.5977 30.7196 25.5977 30.7196L24.3331 34.0477L25.2699 33.5321L27.5181 28.0008C27.5181 28.0008 29.7195 26.9227 31.3588 26.9227C34.3097 26.8758 38.6656 23.2665 36.6984 16.7977C37.2605 17.0321 47.0028 21.9071 48.689 31.4696C49.9536 38.829 45.785 45.7196 38.7593 49.704Z" fill="#94A6C3"/>
<path d="M27.6117 13.329C28.689 12.0634 28.2674 10.1884 28.2674 10.1884L25.1293 14.829C25.0824 14.829 26.2534 14.8758 27.6117 13.329Z" fill="#0A192B"/>
<path d="M17.0731 38.6885L17.4478 36.8135C17.4478 36.8135 15.9021 39.5321 15.7617 39.9071C15.6211 40.329 15.8554 41.079 16.4643 41.0321C17.0731 40.9853 17.8226 40.0947 17.8226 39.4385C17.8226 38.5947 17.0731 38.6885 17.0731 38.6885Z" fill="#0A192B"/>
<path d="M44.8951 8.87589C44.8951 8.87589 47.2369 8.96965 49.6726 9.25089C44.1925 4.93839 38.9935 3.67277 34.7781 3.67277C28.9701 3.67277 25.0356 6.06339 24.8015 6.20403L26.6282 3.29777C26.6282 3.29777 19.3214 2.59465 16.7453 10.329C16.0895 8.68839 15.4806 6.29777 15.4806 6.29777C15.4806 6.29777 11.6868 9.62589 13.4666 15.1572C9.11066 13.5634 2.88117 11.3603 2.64698 11.3134C2.31912 11.2665 2.22544 11.4072 2.22544 11.4072C2.22544 11.4072 2.13176 11.5478 2.41279 11.7822C2.928 12.204 12.7641 19.4696 14.9186 20.8759C14.4502 22.5634 14.4502 23.3603 14.9186 24.1572C15.5743 25.2353 15.6212 25.7977 15.5275 26.5946C15.4338 27.3915 14.5907 34.2822 14.4034 35.1259C14.2161 35.9696 12.2488 38.9696 12.3425 39.8603C12.4362 40.7509 13.6539 44.5477 14.7313 44.9696C15.5275 45.2509 17.4947 45.8603 18.8062 45.8603C19.2745 45.8603 19.6961 45.7665 19.8835 45.579C20.6797 44.8759 20.9138 44.7353 21.4759 44.7353C21.5228 44.7353 21.5696 44.7353 21.6165 44.7353C21.8506 44.7353 22.1317 44.7822 22.4595 44.7822C23.2089 44.7822 24.1926 44.6415 24.8952 43.9853C25.9256 42.954 27.7054 41.5477 28.2675 40.8915C28.9701 40.0009 29.3447 38.7822 29.1574 37.5634C29.0169 36.4384 29.6258 35.454 30.3284 34.4696C31.2183 33.2977 32.8576 31.1884 32.8576 31.1884C36.0895 33.6259 38.1035 37.329 38.1035 41.454C38.1035 48.7665 31.7335 54.6727 23.8647 54.6727C22.6469 54.6727 21.4759 54.5322 20.3049 54.2509C23.9115 55.5165 26.9561 55.9384 29.4385 55.9384C34.7312 55.9384 37.5415 54.0165 37.5415 54.0165C37.5415 54.0165 36.5578 55.2822 34.9654 56.7353C35.0122 56.7353 35.0122 56.7353 35.0122 56.7353C43.7709 55.5165 48.0333 48.2977 48.0333 48.2977C48.0333 48.2977 47.7054 50.6415 47.2838 52.2353C58.9465 43.4696 56.9794 32.5009 56.9325 32.1259C57.0262 32.2665 58.1972 33.6727 58.8061 34.4227C60.6795 15.1103 44.8951 8.87589 44.8951 8.87589ZM26.9561 39.7196C26.7687 39.954 25.9724 40.6572 25.4104 41.1727C24.8483 41.6884 24.2394 42.204 23.7711 42.6727C23.5837 42.8603 23.2089 42.954 22.6469 42.954C22.4595 42.954 22.2722 42.954 22.1317 42.954C22.0381 42.954 21.9443 42.954 21.8506 42.954C21.7569 42.954 21.7102 42.954 21.6633 42.954C21.5228 42.954 21.3823 42.954 21.2417 42.954C21.9443 42.0165 24.0052 39.8603 24.7078 39.3915C25.5508 38.829 25.9724 38.2665 25.4572 37.2822C24.9419 36.2977 23.5837 36.5322 23.5837 36.5322C23.5837 36.5322 24.3799 36.204 25.0825 36.204C24.1926 35.9696 23.0685 36.204 22.5533 36.7196C21.9912 37.2353 22.0848 39.0634 21.8506 40.2353C21.6165 41.454 20.8202 42.0634 19.6024 43.1884C18.9467 43.7977 18.4783 43.9853 18.1036 43.9853C17.3074 43.8446 16.3706 43.6103 15.7148 43.3759C15.2465 42.7665 14.5438 40.7509 14.3565 39.9072C14.4971 39.4384 15.0591 38.454 15.3402 37.8915C15.9022 36.8134 16.2301 36.204 16.3237 35.6415C16.5111 34.8446 17.1199 29.9227 17.3542 27.8603C17.9631 28.6572 18.8062 29.9696 18.6188 30.8134C19.9772 28.8915 18.9935 27.0165 18.5252 26.2665C18.1036 25.5165 17.5415 24.0165 18.0099 22.4227C18.4783 20.829 20.1645 16.4227 20.1645 16.4227C20.1645 16.4227 20.7265 17.4072 21.5228 17.2196C22.3191 17.0322 28.7358 7.37589 28.7358 7.37589C28.7358 7.37589 30.4689 11.1727 28.6422 13.9384C26.7687 16.704 24.9419 17.2196 24.9419 17.2196C24.9419 17.2196 27.5181 17.6884 29.9068 15.954C30.8904 18.2509 31.8272 20.6415 31.8741 20.9696C31.7335 21.2977 29.8599 25.7977 29.6726 26.079C29.5789 26.1727 28.9233 26.3603 28.4548 26.454C27.6586 26.6884 27.1902 26.829 27.0028 26.9696C26.6749 27.2509 25.1762 31.3759 24.4736 33.3915C23.6305 33.6259 22.7874 34.0946 22.1785 35.0322C22.5064 34.7977 23.5368 34.6572 24.2863 34.5634C24.9419 34.5165 26.9561 35.5946 27.4713 37.6103C27.4713 37.6572 27.4713 37.6572 27.4713 37.704C27.5649 38.454 27.3307 39.1572 26.9561 39.7196ZM22.5533 40.2822C22.9747 39.6727 22.9279 38.6415 22.9747 38.3134C23.0216 37.9853 23.1153 37.3759 23.4899 37.2822C23.8647 37.1884 24.7546 37.329 24.7546 37.9853C24.7546 38.5946 24.0989 38.7353 23.6305 39.1572C23.3026 39.4853 22.6469 40.1884 22.5533 40.2822ZM41.2417 31.329C41.7101 28.9384 41.7569 26.8759 41.6164 25.1884C43.4431 27.6259 44.5672 30.579 44.8951 33.6259C44.9419 34.0009 45.3166 34.3759 45.6913 34.7509C46.0192 35.0322 46.3939 35.4072 46.3939 35.6415C46.3939 36.7196 46.3002 37.7977 46.1128 38.8759C46.0661 39.0165 45.6445 39.2509 45.3166 39.4384C44.8483 39.6727 44.4267 39.9072 44.3331 40.2822C43.3026 43.8915 41.1012 47.079 38.1504 49.329C42.5063 44.7822 44.6141 37.2822 41.2417 31.329ZM38.2908 49.7509C41.3354 47.4072 43.6773 44.1259 44.7077 40.4227C44.7545 40.2822 45.1761 40.0477 45.4572 39.8603C45.9255 39.6259 46.3939 39.3446 46.4876 38.9696C46.6749 37.8915 46.7686 36.7665 46.7686 35.6415C46.7686 35.2196 46.3471 34.7977 45.9255 34.3759C45.6913 34.0946 45.3166 33.7665 45.3166 33.5322C44.9419 30.1103 43.5836 26.8759 41.4758 24.204C40.5392 18.579 36.7921 16.8446 36.6984 16.7977C36.7921 16.9384 39.2276 20.454 37.5415 24.579C35.8085 28.7509 31.3588 28.0946 30.9842 28.1415C30.6094 28.1415 29.1574 30.0165 27.3307 33.4853C27.0965 33.3915 26.1129 33.1572 24.9888 33.3446C25.8319 31.0009 27.0965 27.6727 27.3307 27.3915C27.4244 27.2977 28.1269 27.1103 28.5954 26.9696C29.4853 26.7353 29.9068 26.5946 30.0474 26.4072C30.1411 26.2665 30.6094 25.1884 31.0778 24.0634C31.4993 24.0634 32.5766 23.9696 32.6703 23.9227C32.7639 23.829 33.6538 21.5322 33.6538 21.2509C33.6538 21.0165 31.8272 16.4696 31.1246 14.7353C31.4525 14.3603 31.7804 13.8915 32.1083 13.3759C41.7101 14.4072 49.2042 22.5634 49.2042 32.454C49.2042 40.0477 44.7545 46.6572 38.2908 49.7509Z" fill="#0A192B"/>
<path d="M25.8319 24.4384C26.7218 23.4072 26.2534 21.4853 24.6141 21.1572C25.0356 20.1728 25.6446 18.2041 25.6446 18.2041C25.6446 18.2041 20.867 25.7041 20.4454 25.8447C20.0239 25.9853 19.6023 24.3447 19.6023 24.3447C18.7124 27.7665 21.1012 28.2353 21.3822 27.1572C22.6937 26.8291 24.9419 25.4228 25.8319 24.4384Z" fill="#0A192B"/>
<path d="M21.7573 26.2666L24.1929 22.0948C24.1929 22.0948 25.598 22.798 24.8954 23.923C24.0055 25.2354 21.7573 26.2666 21.7573 26.2666Z" fill="#FFD923"/>
<path d="M51.8737 45.5791C51.1711 46.5166 50.3748 47.501 49.438 48.4385C55.4802 36.8135 49.7191 26.1729 49.4849 25.751C49.9064 26.1729 50.328 26.6416 50.7027 27.0634C55.3397 32.2198 55.9018 39.9541 51.8737 45.5791Z" fill="#D82122"/>
<path d="M57.4942 30.626C55.3866 24.9541 52.3889 20.126 45.7847 15.7666C39.4147 11.5479 32.5764 11.876 32.2016 11.9229C32.1548 11.9229 32.1079 11.9229 32.1079 11.9229C32.3421 11.8291 32.5764 11.7822 32.8105 11.7353C34.2625 11.2666 36.136 10.8916 38.0096 10.6572C42.9744 9.95412 47.9861 11.6416 51.4052 15.251C51.4521 15.2979 51.4521 15.2979 51.4989 15.3448C55.3866 19.4698 57.4006 24.626 57.4942 30.626Z" fill="#D82122"/>
<path d="M44.2861 7.42297C37.3072 6.11047 32.8107 6.76672 29.5789 7.98547C29.4852 7.61047 29.1574 6.86047 28.8764 6.25109C27.8927 7.42297 26.8622 8.82922 26.2066 9.71985C24.4267 10.9386 23.6772 12.1104 23.6772 12.1104C24.7077 8.59485 27.7054 5.96985 31.3587 5.31359C32.3891 5.12609 33.5132 5.03235 34.7311 5.03235C37.9629 5.07922 41.1948 5.87609 44.2861 7.42297Z" fill="#D82122"/>
<path d="M18.4781 16.423C12.998 16.2354 14.8247 9.86047 14.9185 9.48547C14.9185 9.53235 15.2931 14.5011 18.4781 16.423Z" fill="#D82122"/>
<path d="M23.8645 4.93848C19.649 7.46973 20.4921 13.5166 20.4921 13.5166C16.464 7.37598 23.5367 5.0791 23.8645 4.93848Z" fill="#D82122"/>
<path d="M16.9325 18.1103C17.2135 18.3448 17.4945 18.7665 17.1667 19.376C16.9793 19.7041 16.6983 19.6572 16.2767 19.4698C15.7147 19.1884 12.3423 17.2198 9.29785 15.2041C12.7638 16.4229 16.2767 17.7353 16.8388 18.0165C16.8388 18.0165 16.8856 18.0634 16.9325 18.1103Z" fill="white"/>
</g>
<defs>
<clipPath id="clip0_637_2607">
<rect width="161.111" height="60" fill="white" transform="translate(0.805176)"/>
</clipPath>
</defs>
</svg>
