<svg width="203" height="50" viewBox="0 0 203 50" fill="none" xmlns="http://www.w3.org/2000/svg">
<path d="M189.849 15.0001C184.378 15.0001 179.902 19.4546 179.902 25.0006C179.902 30.5007 184.332 34.9994 189.849 34.9994C195.319 34.9994 199.795 30.5449 199.795 25.0006C199.795 19.4546 195.363 15.0001 189.849 15.0001ZM189.849 32.228C188.896 32.2268 187.952 32.0375 187.073 31.671C186.193 31.3045 185.394 30.7681 184.722 30.0925C184.05 29.4168 183.518 28.6152 183.157 27.7336C182.795 26.8519 182.611 25.9076 182.615 24.9547C182.615 20.9558 185.869 17.6813 189.849 17.6813C190.801 17.683 191.745 17.8726 192.624 18.2392C193.504 18.6058 194.302 19.1423 194.974 19.8178C195.646 20.4934 196.178 21.2948 196.54 22.1763C196.902 23.0577 197.086 24.0019 197.083 24.9547C197.086 25.9075 196.902 26.8516 196.54 27.7331C196.178 28.6145 195.646 29.4159 194.974 30.0915C194.302 30.7671 193.504 31.3035 192.624 31.6701C191.745 32.0367 190.801 32.2263 189.849 32.228ZM78.2226 15.0001C75.4201 15.0001 73.2961 17.2273 72.7077 19.0449V15.772H64.4805V18.5007H70.0413V31.5463H64.4805V34.2734H79.5796V31.5463H72.7077V23.2732C72.7077 22.044 73.7927 17.5453 77.4556 17.5453C78.5864 17.5453 79.6255 17.8632 80.304 18.6368C80.0296 19.0031 79.8864 19.451 79.8975 19.9085C79.8975 21.0902 80.8464 22.0456 82.0215 22.0456C83.2867 22.0456 84.1013 21 84.1013 19.7266C84.1013 17.6813 81.7511 15.0001 78.2242 15.0001H78.2226ZM148.572 15.0001C145.769 15.0001 143.644 17.2273 143.055 19.0449V15.772H134.828V18.5007H140.387V31.5463H134.826V34.2734H149.927V31.5463H143.057V23.2732C143.057 22.044 144.142 17.5453 147.805 17.5453C148.936 17.5453 149.975 17.8632 150.653 18.6368C150.378 19.0028 150.234 19.4508 150.245 19.9085C150.245 21.0902 151.196 22.0456 152.371 22.0456C153.636 22.0456 154.45 21 154.45 19.7266C154.447 17.6813 152.143 15.0001 148.572 15.0001ZM103.632 23.7271C104.807 23.7271 105.757 22.7717 105.757 21.59V21.318C105.485 18.8629 101.642 15.0443 96.7141 15.0443C91.1534 15.0443 86.6333 19.5447 86.6333 25.0448C86.6333 30.5908 91.1534 35.0453 96.7141 35.0453C98.5359 35.0521 100.325 34.5602 101.887 33.6227C103.449 32.6852 104.725 31.338 105.576 29.7271L103.406 28.2275C102.095 30.6367 99.6084 32.2723 96.7141 32.2723C92.6907 32.2723 89.526 28.9994 89.526 24.9989C89.526 21 92.6907 17.7272 96.7141 17.7272C98.9758 17.7272 100.828 18.5909 102.095 20.0446C101.734 20.4084 101.508 20.9542 101.508 21.5441C101.508 22.7733 102.457 23.7271 103.632 23.7271ZM170.454 18.5007H172.714L167.876 31.0907L162.587 18.5466H164.893V15.7736H156.981V18.5007H159.693L166.475 34.7732L162.723 44.5H165.618L175.608 18.5466H178.413V15.7736H170.456V18.5007H170.454ZM35.5903 22.8635C35.5903 18.0009 32.3797 15.0001 28.4005 15.0001C25.2801 15.0001 22.7037 17.2732 21.5729 19.5447C20.4896 16.6816 17.9133 15.0001 14.9748 15.0001C12.0346 15.0001 9.50417 17.2273 8.73389 19.0449V15.772H3.12891V18.5007H6.02318V34.2275H8.73389V23.1814C8.73389 21.9096 10.2253 17.4092 14.6109 17.4092C16.6907 17.4092 19.4948 19.2727 19.4948 23.1371V34.2275H22.2055V23.1371C22.2055 21.8637 23.5625 17.4092 28.0383 17.4092C30.1181 17.4092 32.9222 19.0907 32.9222 22.9093V34.1816H38.5272V31.5004H35.6329L35.5886 22.8635H35.5903ZM51.4137 15.0001C50.1053 14.9947 48.8088 15.2485 47.5991 15.7469C46.3894 16.2454 45.2904 16.9786 44.3656 17.9041C43.4408 18.8297 42.7085 19.9293 42.211 21.1394C41.7136 22.3496 41.4608 23.6463 41.4673 24.9547C41.4673 25.1349 41.5132 25.8642 41.5132 26.0003C42.0098 31.0448 46.3053 34.9994 51.5039 34.9994C53.3257 35.0064 55.1147 34.5145 56.6768 33.577C58.2389 32.6395 59.5145 31.2922 60.3653 29.6812L58.1954 28.1816C56.8843 30.5908 54.3981 32.228 51.5039 32.228C49.7319 32.232 48.0184 31.594 46.6804 30.4323C45.3424 29.2705 44.4703 27.6635 44.2256 25.9085H60.9094C60.9537 25.5906 60.9537 25.2267 60.9537 24.9088C60.9979 19.4087 56.9286 15.0001 51.4137 15.0001ZM44.3616 23.2273C44.7329 21.636 45.6321 20.2172 46.9126 19.2021C48.1931 18.187 49.7796 17.6354 51.4137 17.637C54.8505 17.637 57.3366 20.0462 58.1053 23.2273H44.3616ZM127.774 15.7736H125.062V26.7279C125.062 29.2272 122.486 32.5919 119.185 32.5919C117.103 32.5919 114.347 30.6367 114.347 27.0459V15.7736H108.742V18.5007H111.635V27.2262C111.635 32.0904 114.845 34.9535 118.823 34.9535C121.625 34.9535 123.797 33.2261 125.062 31.407V34.2717H130.667V31.5446H127.774V15.7736Z" fill="white"/>
</svg>
