<svg width="71" height="70" viewBox="0 0 71 70" fill="none" xmlns="http://www.w3.org/2000/svg">
<g clip-path="url(#clip0_637_2612)">
<path d="M5.23592 8.66758L2.89041 1.2451V8.66758H1.69678V0.153442H3.69811L5.86853 7.24723L8.03896 0.153442H10.0443V8.66758H8.85066V1.2451L6.50318 8.66758H5.23592Z" fill="white"/>
<path d="M13.842 8.66758H12.6484V0.153442H13.842V8.66758Z" fill="white"/>
<path d="M19.1656 0C20.7034 0 22.0523 0.693243 22.3924 2.32475H21.2306C20.9501 1.35063 19.9634 1.00998 19.1199 1.00998C18.4634 1.00998 17.3135 1.30282 17.3135 2.25503C17.3135 3.00604 17.9103 3.38254 18.7061 3.55784L19.6829 3.78494C20.984 4.06582 22.5436 4.55987 22.5436 6.27304C22.5436 7.93043 20.9959 8.82291 19.3069 8.82291C17.3016 8.82291 16.0343 7.7193 15.8115 6.034H16.9853C17.208 7.2073 18.0058 7.82687 19.3307 7.82687C20.598 7.82687 21.3201 7.22922 21.3201 6.39256C21.3201 5.49017 20.5562 5.13756 19.4899 4.89052L18.4335 4.66743C17.2598 4.40848 16.1 3.75107 16.1 2.34069C16.094 0.693243 17.795 0 19.1656 0Z" fill="white"/>
<path d="M27.3879 0C28.9237 0 30.2725 0.693243 30.6127 2.32475H29.4608C29.1803 1.35063 28.1956 1.00998 27.35 1.00998C26.6936 1.00998 25.5437 1.30282 25.5437 2.25503C25.5437 3.00604 26.1306 3.38254 26.9363 3.55784L27.9031 3.78494C29.2042 4.06582 30.7659 4.55987 30.7659 6.27304C30.7659 7.93043 29.2161 8.82291 27.5271 8.82291C25.5218 8.82291 24.2546 7.7193 24.0317 6.034H25.2055C25.4283 7.2073 26.226 7.82687 27.551 7.82687C28.8182 7.82687 29.5404 7.22922 29.5404 6.39256C29.5404 5.49017 28.7765 5.13756 27.7101 4.89052L26.6538 4.66743C25.482 4.40848 24.3202 3.75107 24.3202 2.34069C24.3143 0.693243 26.0152 0 27.3879 0Z" fill="white"/>
<path d="M33.9646 8.66758H32.771V0.153442H33.9646V8.66758Z" fill="white"/>
<path d="M40.1458 8.82091C37.7068 8.82091 36.167 6.97626 36.167 4.40448C36.167 1.83271 37.7068 0 40.1458 0C42.5848 0 44.1246 1.83271 44.1246 4.40448C44.1246 6.97626 42.5907 8.82091 40.1458 8.82091ZM40.1458 7.81091C41.6935 7.81091 42.915 6.60174 42.915 4.40448C42.915 2.20722 41.6935 1.01795 40.1458 1.01795C38.598 1.01795 37.3785 2.2132 37.3785 4.40448C37.3785 6.59574 38.5861 7.81091 40.1458 7.81091Z" fill="white"/>
<path d="M51.4158 8.66758L47.5206 1.39451V8.66758H46.3271V0.153442H48.0858L51.9689 7.39862V0.153442H53.1628V8.66758H51.4158Z" fill="white"/>
<path d="M27.9749 30.5664C29.5107 30.5664 30.8595 31.2577 31.1997 32.8912H30.0399C29.7574 31.9171 28.7727 31.5764 27.9271 31.5764C27.2707 31.5764 26.1208 31.8692 26.1208 32.8215C26.1208 33.5725 26.7176 33.949 27.5134 34.1243L28.5081 34.3474C29.8111 34.6302 31.3708 35.1223 31.3708 36.8375C31.3708 38.4929 29.8231 39.3853 28.1341 39.3853C26.1268 39.3853 24.8615 38.2817 24.6387 36.5965H25.8105C26.0333 37.7718 26.831 38.3893 28.1559 38.3893C29.4232 38.3893 30.1453 37.8036 30.1453 36.957C30.1453 36.0526 29.3834 35.7 28.3151 35.453L27.2587 35.2299C26.087 34.9729 24.9252 34.3155 24.9252 32.9051C24.9013 31.2577 26.6022 30.5664 27.9749 30.5664Z" fill="white"/>
<path d="M34.9992 31.7516H32.23V30.7178H38.9621V31.7516H36.1948V39.2439H35.0012L34.9992 31.7516Z" fill="white"/>
<path d="M43.8997 35.6402C43.6769 35.6521 43.478 35.6521 43.2552 35.6521H41.7532V39.2379H40.5596V30.7178H43.2572C45.3203 30.7178 46.7981 31.1301 46.7981 33.174C46.7981 34.5246 46.1538 35.1661 45.1094 35.4509L47.0807 39.2359H45.7438L43.8997 35.6402ZM41.7532 31.7277V34.6402H43.3447C44.5999 34.6402 45.5607 34.5127 45.5607 33.1959C45.5607 31.8792 44.5999 31.7277 43.3447 31.7277H41.7532Z" fill="white"/>
<path d="M49.106 30.7178H54.8751V31.7516H50.2994V34.3413H54.6064V35.3752H50.3016V38.206H54.8773V39.2439H49.1081L49.106 30.7178Z" fill="white"/>
<path d="M56.8804 30.7178H62.6499V31.7516H58.0743V34.3413H62.3791V35.3752H58.076V38.206H62.6517V39.2439H56.8825L56.8804 30.7178Z" fill="white"/>
<path d="M66.4139 31.7516H63.6465V30.7178H70.3786V31.7516H67.6113V39.2439H66.4178L66.4139 31.7516Z" fill="white"/>
<path d="M2.12648 61.2844L4.4859 68.5652L6.79561 61.2844H8.05091L5.1643 69.7983H3.73391L0.813477 61.2844H2.12648Z" fill="white"/>
<path d="M10.3628 61.2844H16.132V62.3183H11.5564V64.9078H15.8615V65.9378H11.5564V68.7665H16.132V69.7983H10.3628V61.2844Z" fill="white"/>
<path d="M23.8228 69.7983L19.9275 62.5291V69.7983H18.7339V61.2844H20.4945L24.3738 68.5274V61.2844H25.5675V69.7983H23.8228Z" fill="white"/>
<path d="M30.529 62.3183H27.7617V61.2844H34.4939V62.3183H31.7266V69.7983H30.5329L30.529 62.3183Z" fill="white"/>
<path d="M37.7527 61.2844V66.4635C37.7527 68.1431 38.3496 68.9178 39.9411 68.9178C41.5704 68.9178 42.1692 68.0135 42.1692 66.3283V61.2844H43.3628V66.2405C43.3628 68.7305 42.4139 69.9518 39.9391 69.9518C37.5817 69.9518 36.5571 68.9896 36.5571 66.3339V61.2844H37.7527Z" fill="white"/>
<path d="M49.7843 66.2048C49.5617 66.2165 49.3626 66.2165 49.14 66.2165H47.6378V69.8022H46.4443V61.2844H49.1417C51.207 61.2844 52.683 61.6944 52.683 63.7383C52.683 65.0892 52.0383 65.7304 50.9939 66.0174L52.9657 69.8022H51.6287L49.7843 66.2048ZM47.6378 62.2944V65.2065H49.2296C50.4848 65.2065 51.4457 65.077 51.4457 63.7622C51.4457 62.4474 50.4848 62.2944 49.2296 62.2944H47.6378Z" fill="white"/>
<path d="M55.5894 61.2844H61.3585V62.3183H56.7828V64.9078H61.092V65.9378H56.785V68.7665H61.3607V69.7983H55.5911L55.5894 61.2844Z" fill="white"/>
<path d="M66.682 61.1309C68.2198 61.1309 69.569 61.824 69.909 63.4557H68.7472C68.4668 62.4814 67.4799 62.1409 66.6364 62.1409C65.9799 62.1409 64.8303 62.4357 64.8303 63.3857C64.8303 64.137 65.4168 64.5135 66.2229 64.6905L67.2072 64.914C68.5085 65.1948 70.0681 65.6888 70.0681 67.404C70.0681 69.0592 68.5203 69.9518 66.8316 69.9518C64.8259 69.9518 63.559 68.8483 63.3359 67.1627H64.5098C64.7325 68.3361 65.5303 68.9557 66.8555 68.9557C68.1225 68.9557 68.8446 68.3679 68.8446 67.5235C68.8446 66.6192 68.0829 66.2666 67.0146 66.0192L65.9603 65.7961C64.7864 65.5374 63.6264 64.8801 63.6264 63.4696C63.6107 61.824 65.3094 61.1309 66.682 61.1309Z" fill="white"/>
<path d="M21.8275 30.7318H1.59131V39.222H21.8275V30.7318Z" fill="white"/>
<path d="M70.3787 0H56.9004V8.69565H70.3787V0Z" fill="white"/>
<path d="M70.3787 15.2932H1.59131V23.7834H70.3787V15.2932Z" fill="white"/>
<path d="M70.3787 46.1721H1.59131V54.6626H70.3787V46.1721Z" fill="white"/>
</g>
<defs>
<clipPath id="clip0_637_2612">
<rect width="69.5652" height="70" fill="white" transform="translate(0.813477)"/>
</clipPath>
</defs>
</svg>
