<svg width="156" height="36" viewBox="0 0 156 36" fill="none" xmlns="http://www.w3.org/2000/svg">
<g clip-path="url(#clip0_1048_5259)">
<path d="M26.9289 35.1274H0.498047C0.498047 35.1274 0.498048 31.1401 0.498048 26.2114V9.04361C0.498048 4.11481 4.53843 0.127463 9.5328 0.127463H26.985C31.9232 0.127463 35.9636 0.127441 35.9636 0.127441V26.2667C35.9636 31.1401 31.9232 35.1274 26.9289 35.1274Z" fill="#696969"/>
<path d="M20.0826 17.6274C20.0826 13.197 16.4351 9.54199 11.8896 9.54199V13.1417C14.3587 13.1417 16.379 15.1353 16.379 17.572C16.379 22.0024 20.0265 25.6575 24.5719 25.6575V22.0577C22.1028 22.0577 20.0826 20.0641 20.0826 17.6274Z" fill="#1E1E1E"/>
<path d="M8.18652 22.1132C8.18652 24.1069 9.81392 25.7129 11.8341 25.7129V13.197H8.18652V22.1132Z" fill="#1E1E1E"/>
<path d="M24.5723 9.48657V22.0577H28.2199V13.1416C28.276 11.1479 26.5925 9.48657 24.5723 9.48657Z" fill="#1E1E1E"/>
<path d="M60.3738 10.0403V20.6178L57.4557 17.295L51.9563 11.2033L50.9462 10.0403H47.0742V25.2697H50.7217V14.5814L60.2616 25.2144H64.0775V10.0403H60.3738Z" fill="white"/>
<path d="M80.5758 12.8093V10.0957H67.0518V25.3251H70.8677V19.3995H80.5758V16.6859H70.8677V12.8093H80.5758Z" fill="white"/>
<path d="M83.5498 10.0957V12.8647H89.2733V25.2698H93.1458V12.8647H98.87V10.0957H83.5498Z" fill="white"/>
<path d="M135.458 10.0957C135.458 10.5941 135.458 14.803 135.514 22.667L123.506 10.0957H121.261V25.2698H123.337C123.337 24.5499 123.337 20.341 123.281 12.6985L135.346 25.2698H137.478V10.0957H135.458Z" fill="white"/>
<path d="M142.697 23.4422V18.292H154.425V16.5198H142.697V11.9786H154.705V10.0957H140.509V25.3251H155.267V23.4422H142.697Z" fill="white"/>
<path d="M113.685 10.0957H105.772C103.303 10.0957 101.339 12.0894 101.339 14.4707V20.6733C101.339 23.1654 103.416 25.2144 105.941 25.2144H113.853C116.322 25.2144 118.286 23.2207 118.286 20.8394V14.6922C118.286 12.1448 116.21 10.0957 113.685 10.0957ZM113.797 23.2207H105.885C104.481 23.2207 103.36 22.1131 103.36 20.7286V14.5261C103.36 13.2524 104.426 12.2001 105.716 12.2001H113.572C114.976 12.2001 116.098 13.3077 116.098 14.6922V20.8394C116.21 22.1685 115.144 23.2207 113.797 23.2207Z" fill="white"/>
</g>
<defs>
<clipPath id="clip0_1048_5259">
<rect width="155" height="35" fill="white" transform="translate(0.498047 0.127441)"/>
</clipPath>
</defs>
</svg>
