<svg width="152" height="35" viewBox="0 0 152 35" fill="none" xmlns="http://www.w3.org/2000/svg">
<path fill-rule="evenodd" clip-rule="evenodd" d="M26.2487 34.627H0.5V9.28837C0.5 4.50039 4.43612 0.626974 9.30159 0.626974L35.0503 0.626953V26.0194C35.0503 30.7535 31.1142 34.627 26.2487 34.627ZM23.9527 21.9306V9.71872C25.9208 9.71872 27.5608 11.3326 27.5061 13.2693V21.9307L23.9527 21.9306ZM19.5793 17.6269C19.5793 19.9939 21.5473 21.9306 23.9527 21.9306V25.4275C19.5245 25.4275 15.9712 21.8769 15.9712 17.573C15.9712 15.206 14.0031 13.2693 11.5977 13.2693V9.77246C16.0258 9.77246 19.5793 13.323 19.5793 17.6269ZM7.98954 21.9846C7.98954 23.9213 9.57494 25.4814 11.543 25.4814V13.3232H7.98954V21.9846ZM58.831 20.5319V10.2567H62.4391V24.9972H58.7217L49.4281 14.6681V25.0509H45.8747V10.2567H49.6468L50.6308 11.3864L55.9883 17.3041L58.831 20.5319ZM78.5116 10.3104V12.9465H69.054V16.7123H78.5116V19.3484H69.054V25.1047H65.3365V10.3104H78.5116ZM81.409 10.3104V13.0003H86.9848V25.0509H90.7574V13.0003H96.3338V10.3104H81.409ZM132.032 22.5225C131.977 14.8832 131.977 10.7946 131.977 10.3104H133.945V25.0509H131.868L120.114 12.8389C120.169 20.2629 120.169 24.3516 120.169 25.0509H118.146V10.3104H120.333L132.032 22.5225ZM139.03 23.2756V18.2725H150.455V16.5509H139.03V12.1395H150.728V10.3104H136.898V25.1047H151.275V23.2756H139.03ZM103.057 10.3104H110.766C113.226 10.3104 115.249 12.3009 115.249 14.7756V20.7471C115.249 23.0604 113.335 24.9971 110.93 24.9971H103.221C100.762 24.9971 98.7385 23.0067 98.7385 20.5858V14.5604C98.7385 12.2471 100.652 10.3104 103.057 10.3104ZM103.167 23.0604H110.875C112.187 23.0604 113.226 22.0383 113.117 20.7471V14.7756C113.117 13.4306 112.023 12.3547 110.656 12.3547H103.003C101.745 12.3547 100.707 13.3769 100.707 14.6142V20.6395C100.707 21.9845 101.8 23.0604 103.167 23.0604Z" fill="url(#paint0_radial_736_346)"/>
<defs>
<radialGradient id="paint0_radial_736_346" cx="0" cy="0" r="1" gradientUnits="userSpaceOnUse" gradientTransform="translate(10.5 -5.87303) rotate(17.1835) scale(260.634)">
<stop stop-color="white"/>
<stop offset="1" stop-color="white" stop-opacity="0.23"/>
</radialGradient>
</defs>
</svg>
