<svg width="157" height="37" viewBox="0 0 157 37" fill="none" xmlns="http://www.w3.org/2000/svg">
<g clip-path="url(#clip0_589_2947)">
<path fill-rule="evenodd" clip-rule="evenodd" d="M36.1979 18.627C36.1979 28.5675 28.2061 36.627 18.349 36.627C8.4918 36.627 0.5 28.5675 0.5 18.627C0.5 8.68638 8.4918 0.626953 18.349 0.626953C28.2082 0.626953 36.1979 8.68638 36.1979 18.627ZM30.0023 20.5929V21.7524C30.0023 21.819 29.962 21.8782 29.9033 21.9041C29.5439 22.0594 28.3134 22.629 27.8018 23.3466C27.5172 23.7461 27.2472 24.183 26.9759 24.6221C26.0026 26.1972 25.0124 27.7998 23.2686 27.7998H13.9656C10.6685 27.7998 7.99657 25.096 7.99657 21.7598V21.6526C7.99657 21.5638 8.06807 21.4917 8.1561 21.4917H13.3422C13.4448 21.4917 13.52 21.5878 13.5109 21.6895C13.4742 22.0298 13.5365 22.3775 13.6961 22.6937C14.0041 23.3244 14.6423 23.7183 15.3318 23.7183H17.8992V21.697H15.3612C15.231 21.697 15.154 21.5453 15.2291 21.4381C15.2444 21.4145 15.2608 21.3903 15.2779 21.365C15.2918 21.3446 15.3061 21.3235 15.3208 21.3012C15.5611 20.9572 15.904 20.4228 16.2451 19.8143C16.478 19.4038 16.7035 18.9655 16.8851 18.5254C16.9187 18.4524 16.9462 18.3779 16.9731 18.3047L16.9804 18.2849C16.9934 18.2482 17.0064 18.2121 17.0193 18.1764C17.0558 18.0757 17.0909 17.9788 17.118 17.8818C17.1479 17.7912 17.1729 17.697 17.1971 17.6061L17.2133 17.5452C17.2995 17.1716 17.3362 16.7759 17.3362 16.3653C17.3362 16.2044 17.3289 16.0361 17.3142 15.8753C17.3068 15.6996 17.2849 15.5239 17.2628 15.3482C17.2482 15.1928 17.2207 15.0393 17.1913 14.8785C17.1547 14.6436 17.1033 14.4106 17.0446 14.1757L17.0244 14.087C17.0113 14.0391 16.9989 13.9919 16.9865 13.945C16.9573 13.8342 16.9285 13.7247 16.8924 13.6117C16.7475 13.1068 16.5807 12.6149 16.4046 12.1544C16.3404 11.9713 16.2671 11.7956 16.1937 11.62C16.1087 11.4121 16.0225 11.2191 15.9406 11.0356L15.8746 10.8876C15.8233 10.784 15.7793 10.6897 15.7353 10.5936C15.6858 10.4844 15.6344 10.3753 15.5831 10.2718C15.5687 10.2405 15.5534 10.2102 15.5384 10.1803C15.5152 10.1341 15.4927 10.0892 15.4749 10.0443L15.1613 9.45991C15.1173 9.38039 15.1906 9.28607 15.2768 9.31012L17.239 9.84641H17.2445C17.2482 9.84641 17.25 9.84828 17.2518 9.84828L17.5104 9.92039L17.7947 10.0018L17.8992 10.0313V8.85519C17.8992 8.28743 18.3503 7.82695 18.9078 7.82695C19.1865 7.82695 19.4396 7.94161 19.6211 8.12838C19.8027 8.31519 19.9164 8.57039 19.9164 8.85519V10.601L20.1254 10.6601C20.1419 10.6657 20.1584 10.6731 20.1731 10.6842C20.193 10.6992 20.2162 10.7171 20.2427 10.7374C20.2844 10.7694 20.3341 10.8076 20.3913 10.8506C20.421 10.8746 20.4516 10.9007 20.4838 10.9281C20.5312 10.9685 20.5821 11.0119 20.6389 11.0559C20.8278 11.2094 21.0533 11.4073 21.3009 11.6347C21.3669 11.6921 21.4311 11.7512 21.4898 11.8104C21.8089 12.11 22.1665 12.4614 22.5076 12.8497C22.6029 12.9589 22.6964 13.0698 22.7918 13.1863C22.8255 13.2282 22.86 13.2699 22.8943 13.3114C22.9569 13.3871 23.0192 13.4624 23.076 13.5377L23.1407 13.6242C23.237 13.7526 23.3362 13.885 23.4245 14.0222C23.4468 14.0568 23.4705 14.0918 23.4943 14.1268C23.5251 14.1722 23.556 14.2177 23.584 14.2626C23.7234 14.4753 23.8462 14.6954 23.9636 14.9155C24.0131 15.0172 24.0645 15.1281 24.1085 15.2372C24.2387 15.5313 24.3414 15.8309 24.4074 16.1305C24.4275 16.1952 24.4422 16.2655 24.4496 16.3284V16.3432C24.4716 16.4319 24.4789 16.5262 24.4862 16.6224C24.5156 16.9294 24.5009 17.2363 24.4349 17.5452C24.4074 17.6765 24.3707 17.8004 24.3267 17.9317L24.3119 17.974C24.2727 18.0867 24.2323 18.2026 24.1818 18.3127C24.0718 18.5697 23.9416 18.8268 23.7876 19.0672C23.738 19.156 23.6794 19.2503 23.6207 19.3391C23.5893 19.3851 23.5576 19.4298 23.5265 19.4736C23.4938 19.5196 23.4618 19.5646 23.4318 19.6091C23.3511 19.72 23.2649 19.8365 23.1769 19.9401C23.098 20.0492 23.0174 20.1583 22.9293 20.2545C22.8065 20.4006 22.6891 20.5393 22.5662 20.6724C22.4929 20.7593 22.414 20.8481 22.3333 20.9276C22.2657 21.0037 22.1967 21.0731 22.1322 21.1379L22.1004 21.1699C21.9776 21.2938 21.8749 21.39 21.7887 21.4695L21.587 21.6563C21.5576 21.6822 21.5191 21.697 21.4788 21.697H19.9164V23.7183H21.8822C22.3223 23.7183 22.7405 23.5611 23.0779 23.2726L23.087 23.2646C23.2179 23.1494 23.7122 22.7146 24.2937 22.0668C24.3138 22.0446 24.3395 22.028 24.3689 22.0206L29.7988 20.4376C29.8997 20.408 30.0023 20.4856 30.0023 20.5929ZM9.38294 19.1097L9.30593 19.2318C9.23807 19.3372 9.31325 19.4777 9.44162 19.4777H14.2169C14.2701 19.4777 14.3196 19.4519 14.3489 19.4075C14.4113 19.3113 14.47 19.2114 14.5231 19.1097C14.9358 18.4107 15.3025 17.6543 15.4364 17.0958C15.7499 15.7384 15.0806 13.558 14.3049 11.8048C14.2536 11.6883 14.094 11.6773 14.0262 11.7845L9.38294 19.1097Z" fill="url(#paint0_radial_589_2947)"/>
<path d="M53.591 27.2657C51.9775 27.2657 50.4943 26.9011 49.1417 26.1718C47.8051 25.4425 46.7374 24.4278 45.9388 23.1278C45.1567 21.8119 44.7654 20.3374 44.7654 18.7045C44.7654 17.0715 45.1567 15.6049 45.9388 14.3049C46.7374 13.0049 47.8051 11.9902 49.1417 11.2609C50.4943 10.5316 51.9775 10.167 53.591 10.167C55.2046 10.167 56.6796 10.5316 58.0162 11.2609C59.3691 11.9902 60.4283 13.0049 61.1944 14.3049C61.9769 15.6049 62.3677 17.0715 62.3677 18.7045C62.3677 20.3374 61.9769 21.8119 61.1944 23.1278C60.4122 24.4278 59.3527 25.4425 58.0162 26.1718C56.6796 26.9011 55.2046 27.2657 53.591 27.2657ZM53.591 23.5558C54.9601 23.5558 56.0521 23.1119 56.867 22.2241C57.6984 21.3362 58.114 20.163 58.114 18.7045C58.114 17.23 57.6984 16.0568 56.867 15.1848C56.0521 14.297 54.9601 13.8531 53.591 13.8531C52.2056 13.8531 51.0975 14.2891 50.2661 15.161C49.4512 16.033 49.0438 17.2141 49.0438 18.7045C49.0438 20.1789 49.4512 21.36 50.2661 22.2479C51.0975 23.1199 52.2056 23.5558 53.591 23.5558Z" fill="url(#paint1_radial_589_2947)"/>
<path d="M68.8744 15.708C69.2817 15.0897 69.8439 14.5903 70.5611 14.2098C71.2783 13.8293 72.1176 13.639 73.0793 13.639C74.2037 13.639 75.2226 13.9164 76.1354 14.4713C77.0478 15.0263 77.765 15.819 78.2865 16.8495C78.8245 17.88 79.0933 19.077 79.0933 20.4405C79.0933 21.8039 78.8245 23.0089 78.2865 24.0552C77.765 25.0858 77.0478 25.8864 76.1354 26.4572C75.2226 27.0121 74.2037 27.2895 73.0793 27.2895C72.134 27.2895 71.2947 27.0993 70.5611 26.7187C69.8439 26.3382 69.2817 25.8468 68.8744 25.2443V31.0469H64.6938V13.8293H68.8744V15.708ZM74.8395 20.4405C74.8395 19.4258 74.5461 18.6331 73.9592 18.0623C73.3888 17.4757 72.6798 17.1824 71.8323 17.1824C71.0013 17.1824 70.2923 17.4757 69.7054 18.0623C69.135 18.6489 68.8498 19.4496 68.8498 20.4642C68.8498 21.4789 69.135 22.2796 69.7054 22.8662C70.2923 23.4528 71.0013 23.7461 71.8323 23.7461C72.6637 23.7461 73.3727 23.4528 73.9592 22.8662C74.5461 22.2637 74.8395 21.4551 74.8395 20.4405Z" fill="url(#paint2_radial_589_2947)"/>
<path d="M94.1461 20.2502C94.1461 20.6307 94.1218 21.0271 94.0729 21.4393H84.6115C84.6768 22.2637 84.9456 22.8979 85.4183 23.3418C85.9073 23.7699 86.5021 23.9839 87.2032 23.9839C88.2463 23.9839 88.9713 23.5558 89.379 22.6997H93.8283C93.6002 23.5717 93.1847 24.3564 92.5814 25.0541C91.9949 25.7516 91.2531 26.2986 90.3567 26.695C89.4603 27.0913 88.4579 27.2895 87.3499 27.2895C86.0134 27.2895 84.8235 27.0121 83.7804 26.4572C82.7373 25.9023 81.9224 25.1095 81.3355 24.079C80.749 23.0485 80.4555 21.8436 80.4555 20.4642C80.4555 19.0849 80.7408 17.88 81.3112 16.8495C81.8977 15.819 82.7127 15.0263 83.7558 14.4713C84.7989 13.9164 85.9969 13.639 87.3499 13.639C88.67 13.639 89.8434 13.9085 90.87 14.4476C91.8971 14.9866 92.6956 15.7555 93.2661 16.7544C93.853 17.7532 94.1461 18.9185 94.1461 20.2502ZM89.868 19.18C89.868 18.4825 89.6235 17.9276 89.1344 17.5154C88.6454 17.1032 88.0342 16.8971 87.301 16.8971C86.5999 16.8971 86.0051 17.0952 85.5161 17.4916C85.0434 17.8879 84.75 18.4508 84.6361 19.18H89.868Z" fill="url(#paint3_radial_589_2947)"/>
<path d="M104.664 13.6866C106.261 13.6866 107.532 14.1939 108.478 15.2086C109.439 16.2074 109.92 17.5867 109.92 19.3465V27.0992H105.764V19.8935C105.764 19.0057 105.528 18.316 105.055 17.8245C104.582 17.333 103.947 17.0873 103.148 17.0873C102.349 17.0873 101.714 17.333 101.241 17.8245C100.769 18.316 100.532 19.0057 100.532 19.8935V27.0992H96.3518V13.8293H100.532V15.5891C100.956 15.0025 101.527 14.5427 102.244 14.2098C102.961 13.861 103.767 13.6866 104.664 13.6866Z" fill="url(#paint4_radial_589_2947)"/>
<path d="M119.035 27.2657C117.78 27.2657 116.655 27.0676 115.661 26.6712C114.667 26.2748 113.868 25.6882 113.266 24.9114C112.679 24.1345 112.369 23.1991 112.336 22.1052H116.786C116.851 22.7235 117.071 23.1991 117.446 23.5321C117.821 23.8492 118.31 24.0077 118.913 24.0077C119.532 24.0077 120.021 23.8729 120.38 23.6034C120.738 23.318 120.918 22.9296 120.918 22.4381C120.918 22.0259 120.771 21.685 120.478 21.4155C120.201 21.146 119.85 20.924 119.426 20.7497C119.019 20.5752 118.432 20.3771 117.666 20.1551C116.558 19.8222 115.653 19.4892 114.952 19.1563C114.251 18.8234 113.649 18.3319 113.143 17.6818C112.638 17.0318 112.385 16.1836 112.385 15.1373C112.385 13.5835 112.964 12.3707 114.121 11.4987C115.278 10.6109 116.786 10.167 118.644 10.167C120.535 10.167 122.058 10.6109 123.216 11.4987C124.373 12.3707 124.992 13.5915 125.074 15.161H120.551C120.518 14.622 120.314 14.2018 119.94 13.9006C119.565 13.5835 119.084 13.425 118.497 13.425C117.992 13.425 117.585 13.5597 117.275 13.8293C116.965 14.0829 116.81 14.4555 116.81 14.947C116.81 15.486 117.071 15.9062 117.593 16.2074C118.114 16.5086 118.929 16.8337 120.037 17.1825C121.146 17.5471 122.042 17.8959 122.727 18.2288C123.428 18.5618 124.031 19.0453 124.536 19.6795C125.041 20.3137 125.294 21.1301 125.294 22.129C125.294 23.0802 125.041 23.9443 124.536 24.7211C124.047 25.498 123.33 26.1163 122.385 26.5761C121.439 27.0358 120.323 27.2657 119.035 27.2657Z" fill="url(#paint5_radial_589_2947)"/>
<path d="M140.726 20.2502C140.726 20.6307 140.702 21.0271 140.653 21.4393H131.191C131.257 22.2637 131.525 22.8979 131.998 23.3418C132.487 23.7699 133.082 23.9839 133.783 23.9839C134.826 23.9839 135.551 23.5558 135.959 22.6997H140.408C140.18 23.5717 139.764 24.3564 139.161 25.0541C138.575 25.7516 137.833 26.2986 136.936 26.695C136.04 27.0913 135.038 27.2895 133.93 27.2895C132.593 27.2895 131.403 27.0121 130.36 26.4572C129.317 25.9023 128.502 25.1095 127.915 24.079C127.329 23.0485 127.035 21.8436 127.035 20.4642C127.035 19.0849 127.32 17.88 127.891 16.8495C128.477 15.819 129.292 15.0263 130.336 14.4713C131.379 13.9164 132.577 13.639 133.93 13.639C135.25 13.639 136.423 13.9085 137.45 14.4476C138.477 14.9866 139.275 15.7555 139.846 16.7544C140.433 17.7532 140.726 18.9185 140.726 20.2502ZM136.448 19.18C136.448 18.4825 136.203 17.9276 135.714 17.5154C135.225 17.1032 134.614 16.8971 133.881 16.8971C133.18 16.8971 132.585 17.0952 132.096 17.4916C131.623 17.8879 131.33 18.4508 131.216 19.18H136.448Z" fill="url(#paint6_radial_589_2947)"/>
<path d="M142.1 20.4405C142.1 19.077 142.361 17.88 142.883 16.8495C143.42 15.819 144.146 15.0263 145.058 14.4713C145.971 13.9164 146.99 13.639 148.115 13.639C149.076 13.639 149.915 13.8293 150.633 14.2098C151.366 14.5903 151.928 15.0897 152.319 15.708V13.8293H156.5V27.0993H152.319V25.2205C151.912 25.8388 151.342 26.3382 150.608 26.7187C149.891 27.0993 149.052 27.2895 148.09 27.2895C146.981 27.2895 145.971 27.0121 145.058 26.4572C144.146 25.8864 143.42 25.0858 142.883 24.0552C142.361 23.0089 142.1 21.8039 142.1 20.4405ZM152.319 20.4642C152.319 19.4496 152.026 18.6489 151.439 18.0623C150.869 17.4757 150.168 17.1824 149.337 17.1824C148.505 17.1824 147.796 17.4757 147.21 18.0623C146.64 18.6331 146.354 19.4258 146.354 20.4405C146.354 21.4551 146.64 22.2637 147.21 22.8662C147.796 23.4528 148.505 23.7461 149.337 23.7461C150.168 23.7461 150.869 23.4528 151.439 22.8662C152.026 22.2796 152.319 21.4789 152.319 20.4642Z" fill="url(#paint7_radial_589_2947)"/>
</g>
<defs>
<radialGradient id="paint0_radial_589_2947" cx="0" cy="0" r="1" gradientUnits="userSpaceOnUse" gradientTransform="translate(10.8465 -6.25538) rotate(17.5605) scale(270.221 275.398)">
<stop stop-color="white"/>
<stop offset="1" stop-color="white" stop-opacity="0.23"/>
</radialGradient>
<radialGradient id="paint1_radial_589_2947" cx="0" cy="0" r="1" gradientUnits="userSpaceOnUse" gradientTransform="translate(10.8465 -6.25538) rotate(17.5605) scale(270.221 275.398)">
<stop stop-color="white"/>
<stop offset="1" stop-color="white" stop-opacity="0.23"/>
</radialGradient>
<radialGradient id="paint2_radial_589_2947" cx="0" cy="0" r="1" gradientUnits="userSpaceOnUse" gradientTransform="translate(10.8465 -6.25538) rotate(17.5605) scale(270.221 275.398)">
<stop stop-color="white"/>
<stop offset="1" stop-color="white" stop-opacity="0.23"/>
</radialGradient>
<radialGradient id="paint3_radial_589_2947" cx="0" cy="0" r="1" gradientUnits="userSpaceOnUse" gradientTransform="translate(10.8465 -6.25538) rotate(17.5605) scale(270.221 275.398)">
<stop stop-color="white"/>
<stop offset="1" stop-color="white" stop-opacity="0.23"/>
</radialGradient>
<radialGradient id="paint4_radial_589_2947" cx="0" cy="0" r="1" gradientUnits="userSpaceOnUse" gradientTransform="translate(10.8465 -6.25538) rotate(17.5605) scale(270.221 275.398)">
<stop stop-color="white"/>
<stop offset="1" stop-color="white" stop-opacity="0.23"/>
</radialGradient>
<radialGradient id="paint5_radial_589_2947" cx="0" cy="0" r="1" gradientUnits="userSpaceOnUse" gradientTransform="translate(10.8465 -6.25538) rotate(17.5605) scale(270.221 275.398)">
<stop stop-color="white"/>
<stop offset="1" stop-color="white" stop-opacity="0.23"/>
</radialGradient>
<radialGradient id="paint6_radial_589_2947" cx="0" cy="0" r="1" gradientUnits="userSpaceOnUse" gradientTransform="translate(10.8465 -6.25538) rotate(17.5605) scale(270.221 275.398)">
<stop stop-color="white"/>
<stop offset="1" stop-color="white" stop-opacity="0.23"/>
</radialGradient>
<radialGradient id="paint7_radial_589_2947" cx="0" cy="0" r="1" gradientUnits="userSpaceOnUse" gradientTransform="translate(10.8465 -6.25538) rotate(17.5605) scale(270.221 275.398)">
<stop stop-color="white"/>
<stop offset="1" stop-color="white" stop-opacity="0.23"/>
</radialGradient>
<clipPath id="clip0_589_2947">
<rect width="156" height="36" fill="white" transform="translate(0.5 0.626953)"/>
</clipPath>
</defs>
</svg>
