<svg width="171" height="35" viewBox="0 0 171 35" fill="none" xmlns="http://www.w3.org/2000/svg">
<g clip-path="url(#clip0_592_2477)">
<path d="M10.7674 14.914L17.3811 8.31147L23.9983 14.9175L27.8466 11.0755L17.3811 0.626953L6.91905 11.0721L10.7674 14.914Z" fill="url(#paint0_radial_592_2477)"/>
<path d="M8.04972 17.6264L4.20147 13.7844L0.353027 17.6265L4.20128 21.4685L8.04972 17.6264Z" fill="url(#paint1_radial_592_2477)"/>
<path d="M17.3811 26.9425L10.7674 20.3399L6.91339 24.1768L17.3811 34.627L27.8466 24.1786L27.8485 24.1765L23.998 20.3367L17.3811 26.9425Z" fill="url(#paint2_radial_592_2477)"/>
<path d="M30.5611 21.4702L34.4095 17.6281L30.5613 13.7862L26.7128 17.6283L30.5611 21.4702Z" fill="url(#paint3_radial_592_2477)"/>
<path d="M21.2861 17.6249H21.2845L21.288 17.6268L21.2861 17.6289L17.3811 21.5276L13.4795 17.6324L13.4741 17.6268L17.3811 13.7263L21.2861 17.6249Z" fill="url(#paint4_radial_592_2477)"/>
<path d="M40.4088 8.86548H48.7787C50.8561 8.86548 52.4269 9.39773 53.4916 10.4622C54.3155 11.2866 54.7273 12.3084 54.7273 13.5273V13.5789C54.7273 14.0939 54.6635 14.5491 54.5352 14.9439C54.4072 15.3392 54.2361 15.695 54.0223 16.0127C53.809 16.3306 53.561 16.6096 53.2791 16.8497C52.9969 17.0903 52.6938 17.2965 52.3691 17.4679C53.4133 17.8632 54.2353 18.3994 54.8346 19.0778C55.4336 19.7564 55.7335 20.6965 55.7335 21.8982V21.9495C55.7335 22.7739 55.5748 23.495 55.2572 24.1134C54.9395 24.7313 54.4844 25.2466 53.8918 25.6588C53.2992 26.071 52.5867 26.3799 51.7539 26.5861C50.9212 26.7921 49.9983 26.8949 48.9856 26.8949H40.4088V8.86548ZM47.9419 16.1544C48.8194 16.1544 49.516 16.0046 50.0317 15.7038C50.5476 15.4033 50.8055 14.9181 50.8055 14.2486V14.1971C50.8055 13.5963 50.5817 13.1371 50.1347 12.8192C49.6874 12.5015 49.0423 12.3425 48.1999 12.3425H44.2784V16.1544H47.9419ZM48.9998 23.4182C49.877 23.4182 50.5645 23.2597 51.0637 22.9418C51.5624 22.6241 51.812 22.1302 51.812 21.4605V21.4092C51.812 20.8082 51.5796 20.3318 51.1154 19.9795C50.6509 19.628 49.9028 19.4518 48.8707 19.4518H44.2784V23.4184L48.9998 23.4182Z" fill="url(#paint5_radial_592_2477)"/>
<path d="M60.7183 8.86548H64.6917V26.8955H60.7183V8.86548Z" fill="url(#paint6_radial_592_2477)"/>
<path d="M70.7096 8.86548H74.3726L82.835 19.9669V8.86548H86.7565V26.8955H83.377L74.6308 15.4337V26.8955H70.7096V8.86548Z" fill="url(#paint7_radial_592_2477)"/>
<path d="M98.7853 8.73685H102.449L110.189 26.8955H106.035L104.384 22.8518H96.747L95.096 26.8955H91.0449L98.7853 8.73685ZM102.965 19.3484L100.565 13.5018L98.1664 19.3484H102.965Z" fill="url(#paint8_radial_592_2477)"/>
<path d="M114.478 8.86548H118.142L126.603 19.9669V8.86548H130.525V26.8955H127.145L118.399 15.4337V26.8955H114.478V8.86548Z" fill="url(#paint9_radial_592_2477)"/>
<path d="M144.824 27.2043C143.499 27.2043 142.27 26.9637 141.134 26.4833C139.999 26.0028 139.019 25.3457 138.193 24.5127C137.368 23.68 136.722 22.6968 136.258 21.5636C135.794 20.4301 135.562 19.2195 135.562 17.9316V17.8803C135.562 16.5924 135.794 15.3864 136.258 14.2615C136.722 13.1369 137.368 12.1494 138.193 11.2995C139.019 10.4496 140.008 9.77959 141.16 9.29031C142.312 8.80103 143.586 8.55639 144.979 8.55639C145.821 8.55639 146.59 8.62541 147.287 8.76236C147.984 8.90012 148.616 9.08864 149.184 9.32898C149.751 9.56959 150.275 9.86149 150.758 10.2047C151.238 10.5484 151.686 10.926 152.099 11.3382L149.571 14.2486C148.865 13.6135 148.147 13.1151 147.416 12.7547C146.685 12.3944 145.864 12.2139 144.952 12.2139C144.196 12.2139 143.495 12.36 142.85 12.6519C142.205 12.9438 141.65 13.3471 141.186 13.8622C140.722 14.3772 140.36 14.9742 140.102 15.6523C139.845 16.3309 139.716 17.0562 139.716 17.8288V17.8801C139.716 18.6527 139.845 19.3828 140.102 20.0692C140.36 20.7564 140.717 21.3571 141.173 21.8722C141.628 22.3872 142.179 22.7954 142.824 23.0959C143.469 23.3967 144.179 23.5465 144.952 23.5465C145.985 23.5465 146.857 23.3577 147.571 22.9799C148.285 22.6026 148.994 22.0873 149.699 21.4345L152.228 23.9845C151.763 24.4826 151.281 24.9292 150.783 25.3237C150.284 25.719 149.738 26.0579 149.145 26.3415C148.551 26.6245 147.902 26.8396 147.197 26.9852C146.491 27.131 145.701 27.2043 144.824 27.2043Z" fill="url(#paint10_radial_592_2477)"/>
<path d="M156.904 8.86548H170.5V12.3944H160.826V16.0519H169.339V19.5805H160.826V23.3669H170.63V26.8955H156.904V8.86548Z" fill="url(#paint11_radial_592_2477)"/>
</g>
<defs>
<radialGradient id="paint0_radial_592_2477" cx="0" cy="0" r="1" gradientUnits="userSpaceOnUse" gradientTransform="translate(94.6478 -0.873056) rotate(88.4727) scale(60.2714 303.711)">
<stop stop-color="white"/>
<stop offset="1" stop-color="white" stop-opacity="0.23"/>
</radialGradient>
<radialGradient id="paint1_radial_592_2477" cx="0" cy="0" r="1" gradientUnits="userSpaceOnUse" gradientTransform="translate(94.6478 -0.873056) rotate(88.4727) scale(60.2714 303.711)">
<stop stop-color="white"/>
<stop offset="1" stop-color="white" stop-opacity="0.23"/>
</radialGradient>
<radialGradient id="paint2_radial_592_2477" cx="0" cy="0" r="1" gradientUnits="userSpaceOnUse" gradientTransform="translate(94.6478 -0.873056) rotate(88.4727) scale(60.2714 303.711)">
<stop stop-color="white"/>
<stop offset="1" stop-color="white" stop-opacity="0.23"/>
</radialGradient>
<radialGradient id="paint3_radial_592_2477" cx="0" cy="0" r="1" gradientUnits="userSpaceOnUse" gradientTransform="translate(94.6478 -0.873056) rotate(88.4727) scale(60.2714 303.711)">
<stop stop-color="white"/>
<stop offset="1" stop-color="white" stop-opacity="0.23"/>
</radialGradient>
<radialGradient id="paint4_radial_592_2477" cx="0" cy="0" r="1" gradientUnits="userSpaceOnUse" gradientTransform="translate(94.6478 -0.873056) rotate(88.4727) scale(60.2714 303.711)">
<stop stop-color="white"/>
<stop offset="1" stop-color="white" stop-opacity="0.23"/>
</radialGradient>
<radialGradient id="paint5_radial_592_2477" cx="0" cy="0" r="1" gradientUnits="userSpaceOnUse" gradientTransform="translate(94.6478 -0.873056) rotate(88.4727) scale(60.2714 303.711)">
<stop stop-color="white"/>
<stop offset="1" stop-color="white" stop-opacity="0.23"/>
</radialGradient>
<radialGradient id="paint6_radial_592_2477" cx="0" cy="0" r="1" gradientUnits="userSpaceOnUse" gradientTransform="translate(94.6478 -0.873056) rotate(88.4727) scale(60.2714 303.711)">
<stop stop-color="white"/>
<stop offset="1" stop-color="white" stop-opacity="0.23"/>
</radialGradient>
<radialGradient id="paint7_radial_592_2477" cx="0" cy="0" r="1" gradientUnits="userSpaceOnUse" gradientTransform="translate(94.6478 -0.873056) rotate(88.4727) scale(60.2714 303.711)">
<stop stop-color="white"/>
<stop offset="1" stop-color="white" stop-opacity="0.23"/>
</radialGradient>
<radialGradient id="paint8_radial_592_2477" cx="0" cy="0" r="1" gradientUnits="userSpaceOnUse" gradientTransform="translate(94.6478 -0.873056) rotate(88.4727) scale(60.2714 303.711)">
<stop stop-color="white"/>
<stop offset="1" stop-color="white" stop-opacity="0.23"/>
</radialGradient>
<radialGradient id="paint9_radial_592_2477" cx="0" cy="0" r="1" gradientUnits="userSpaceOnUse" gradientTransform="translate(94.6478 -0.873056) rotate(88.4727) scale(60.2714 303.711)">
<stop stop-color="white"/>
<stop offset="1" stop-color="white" stop-opacity="0.23"/>
</radialGradient>
<radialGradient id="paint10_radial_592_2477" cx="0" cy="0" r="1" gradientUnits="userSpaceOnUse" gradientTransform="translate(94.6478 -0.873056) rotate(88.4727) scale(60.2714 303.711)">
<stop stop-color="white"/>
<stop offset="1" stop-color="white" stop-opacity="0.23"/>
</radialGradient>
<radialGradient id="paint11_radial_592_2477" cx="0" cy="0" r="1" gradientUnits="userSpaceOnUse" gradientTransform="translate(94.6478 -0.873056) rotate(88.4727) scale(60.2714 303.711)">
<stop stop-color="white"/>
<stop offset="1" stop-color="white" stop-opacity="0.23"/>
</radialGradient>
<clipPath id="clip0_592_2477">
<rect width="170" height="34" fill="white" transform="translate(0.5 0.626953)"/>
</clipPath>
</defs>
</svg>
