<svg width="121" height="51" viewBox="0 0 121 51" fill="none" xmlns="http://www.w3.org/2000/svg">
<path d="M67.4087 13.9008C68.7823 13.9008 69.8242 14.1669 70.5344 14.6991C71.2445 15.2261 71.5996 16.001 71.5996 17.0237C71.5996 17.582 71.457 18.0751 71.1719 18.5029C70.8868 18.9256 70.4903 19.236 69.9823 19.4343C70.5629 19.5804 71.019 19.8752 71.3508 20.3187C71.6877 20.7623 71.8561 21.3049 71.8561 21.9467C71.8561 23.0425 71.5089 23.8721 70.8143 24.4356C70.1197 24.9991 69.1296 25.2861 67.8441 25.2966H63.4434V13.9008H67.4087ZM65.7759 23.4103H67.7742C68.3236 23.4103 68.7512 23.2799 69.0571 23.019C69.3681 22.7529 69.5236 22.3876 69.5236 21.9232C69.5236 20.8797 68.9871 20.3501 67.9141 20.3344H65.7759V23.4103ZM65.7759 18.6751H67.502C68.6787 18.6543 69.267 18.182 69.267 17.2585C69.267 16.7419 69.1167 16.3715 68.816 16.1471C68.5206 15.9175 68.0515 15.8027 67.4087 15.8027H65.7759V18.6751Z" fill="url(#paint0_radial_589_2926)"/>
<path d="M73.5822 25.2966V16.828H75.8371V25.2966H73.5822ZM73.4501 14.6365C73.4501 14.2974 73.5615 14.0182 73.7844 13.7991C74.0125 13.5799 74.3209 13.4703 74.7096 13.4703C75.0932 13.4703 75.399 13.5799 75.6271 13.7991C75.8552 14.0182 75.9692 14.2974 75.9692 14.6365C75.9692 14.9809 75.8526 15.2627 75.6193 15.4818C75.3913 15.701 75.088 15.8105 74.7096 15.8105C74.3313 15.8105 74.0254 15.701 73.7922 15.4818C73.5641 15.2627 73.4501 14.9809 73.4501 14.6365Z" fill="url(#paint1_radial_589_2926)"/>
<path d="M77.6487 25.2966V16.828H79.7635L79.8335 17.8064C80.4348 17.0498 81.2408 16.6715 82.2516 16.6715C83.1432 16.6715 83.8066 16.935 84.2421 17.462C84.6775 17.989 84.9004 18.7769 84.9107 19.8257V25.2966H82.6637V19.8804C82.6637 19.4004 82.56 19.0534 82.3527 18.8395C82.1453 18.6203 81.8006 18.5108 81.3186 18.5108C80.6862 18.5108 80.2119 18.7821 79.8957 19.3247V25.2966H77.6487Z" fill="url(#paint2_radial_589_2926)"/>
<path d="M87.2822 20.851C87.9405 20.3709 88.8942 20.1283 90.1434 20.1231H91.1775V19.6378C91.1775 19.2465 91.0765 18.9334 90.8743 18.6986C90.6773 18.4638 90.3637 18.3464 89.9335 18.3464C89.5551 18.3464 89.2571 18.4377 89.0394 18.6203C88.8268 18.803 88.7206 19.0534 88.7206 19.3717H86.4735C86.4735 18.8812 86.6239 18.4273 86.9245 18.0099C87.2252 17.5924 87.6502 17.2663 88.1996 17.0315C88.7491 16.7915 89.3659 16.6715 90.0501 16.6715C91.0868 16.6715 91.9084 16.935 92.5149 17.462C93.1265 17.9838 93.4324 18.7195 93.4324 19.6691V23.3399C93.4375 24.1434 93.549 24.7513 93.7667 25.1635V25.2966H91.4963C91.3927 25.0931 91.3175 24.84 91.2708 24.5374C90.7266 25.1479 90.019 25.4531 89.1482 25.4531C88.324 25.4531 87.6398 25.2131 87.0956 24.733C86.5565 24.253 86.2869 23.6477 86.2869 22.9172C86.2869 22.0198 86.6187 21.331 87.2822 20.851ZM88.8294 23.4494C89.0264 23.6321 89.2959 23.7234 89.6381 23.7234C89.9698 23.7234 90.2756 23.6503 90.5555 23.5042C90.8354 23.3529 91.0428 23.152 91.1775 22.9016V21.4458H90.3378C89.213 21.4458 88.6143 21.8371 88.5417 22.6198L88.534 22.7529C88.534 23.0346 88.6325 23.2668 88.8294 23.4494Z" fill="url(#paint3_radial_589_2926)"/>
<path d="M95.1118 25.2966V16.828H97.2267L97.2966 17.8064C97.8979 17.0498 98.7039 16.6715 99.7147 16.6715C100.606 16.6715 101.27 16.935 101.705 17.462C102.141 17.989 102.363 18.7769 102.374 19.8257V25.2966H100.127V19.8804C100.127 19.4004 100.023 19.0534 99.8158 18.8395C99.6085 18.6203 99.2638 18.5108 98.7817 18.5108C98.1493 18.5108 97.675 18.7821 97.3588 19.3247V25.2966H95.1118Z" fill="url(#paint4_radial_589_2926)"/>
<path d="M103.735 21.1092V20.9605C103.735 19.6561 104.079 18.6151 104.769 17.8377C105.458 17.0602 106.404 16.6715 107.607 16.6715C108.659 16.6715 109.501 16.9741 110.134 17.5794C110.771 18.1794 111.095 18.9804 111.105 19.9822H108.998C108.988 19.5439 108.853 19.1891 108.594 18.9178C108.335 18.6412 107.993 18.5029 107.568 18.5029C107.044 18.5029 106.648 18.696 106.378 19.0821C106.114 19.463 105.982 20.0839 105.982 20.9449V21.1797C105.982 22.0511 106.114 22.6772 106.378 23.0581C106.642 23.439 107.044 23.6295 107.583 23.6295C107.998 23.6295 108.335 23.5147 108.594 23.2851C108.853 23.0555 108.988 22.7503 108.998 22.3694H111.105C111.1 22.9433 110.945 23.4703 110.639 23.9504C110.333 24.4252 109.913 24.7956 109.379 25.0618C108.851 25.3226 108.265 25.4531 107.622 25.4531C106.42 25.4531 105.471 25.0696 104.776 24.3026C104.082 23.5303 103.735 22.4659 103.735 21.1092Z" fill="url(#paint5_radial_589_2926)"/>
<path d="M112.085 21.2658V21.0466C112.085 20.1961 112.248 19.4369 112.575 18.769C112.901 18.0959 113.363 17.5794 113.959 17.2194C114.56 16.8541 115.244 16.6715 116.012 16.6715C117.162 16.6715 118.067 17.0367 118.725 17.7672C119.389 18.4977 119.72 19.5335 119.72 20.8744V21.798H114.363C114.436 22.3511 114.654 22.7946 115.016 23.1285C115.384 23.4625 115.848 23.6295 116.408 23.6295C117.274 23.6295 117.95 23.3138 118.437 22.6824L119.542 23.9269C119.205 24.4069 118.748 24.7826 118.173 25.0539C117.598 25.32 116.96 25.4531 116.26 25.4531C115.027 25.4531 114.021 25.0722 113.244 24.3104C112.471 23.5486 112.085 22.5337 112.085 21.2658ZM114.387 20.2561H117.512V20.0761C117.502 19.5752 117.367 19.1891 117.108 18.9178C116.849 18.6412 116.481 18.5029 116.004 18.5029C115.558 18.5029 115.195 18.6543 114.915 18.9569C114.641 19.2595 114.464 19.6926 114.387 20.2561Z" fill="url(#paint6_radial_589_2926)"/>
<path d="M62.9376 33.9632H64.4775C64.4775 34.7883 64.9687 35.2009 65.951 35.2009C66.3159 35.2009 66.6007 35.1273 66.8053 34.98C67.01 34.8294 67.1123 34.6206 67.1123 34.3535C67.1123 34.0625 67.01 33.84 66.8053 33.6859C66.6007 33.5285 66.2323 33.3641 65.7003 33.1929C65.1682 33.0183 64.747 32.8472 64.4366 32.6794C63.5908 32.2206 63.1678 31.6027 63.1678 30.8255C63.1678 30.4215 63.2804 30.0621 63.5055 29.7471C63.734 29.4287 64.0597 29.1805 64.4827 29.0025C64.909 28.8244 65.3865 28.7354 65.9151 28.7354C66.4472 28.7354 66.9213 28.833 67.3374 29.0282C67.7535 29.2199 68.0758 29.492 68.3043 29.8447C68.5362 30.1973 68.6522 30.5979 68.6522 31.0464H67.1174C67.1174 30.704 67.01 30.4387 66.7951 30.2504C66.5802 30.0586 66.2784 29.9628 65.8896 29.9628C65.5144 29.9628 65.2228 30.0432 65.0147 30.2042C64.8067 30.3616 64.7026 30.5705 64.7026 30.8307C64.7026 31.0737 64.8237 31.2774 65.0659 31.4418C65.3114 31.6061 65.6713 31.7602 66.1454 31.904C67.0185 32.1676 67.6546 32.4945 68.0536 32.8848C68.4527 33.2751 68.6522 33.7612 68.6522 34.3433C68.6522 34.9903 68.4083 35.4987 67.9206 35.8685C67.4329 36.2348 66.7763 36.4179 65.951 36.4179C65.378 36.4179 64.8561 36.3135 64.3855 36.1047C63.9148 35.8924 63.555 35.6031 63.306 35.2368C63.0604 34.8705 62.9376 34.446 62.9376 33.9632Z" fill="url(#paint7_radial_589_2926)"/>
<path d="M70.9851 30.7588L71.0311 31.3802C71.4234 30.8974 71.9537 30.6561 72.6222 30.6561C73.335 30.6561 73.8245 30.9385 74.0905 31.5034C74.4793 30.9385 75.0335 30.6561 75.7532 30.6561C76.3535 30.6561 76.8003 30.8324 77.0936 31.185C77.3869 31.5342 77.5336 32.0614 77.5336 32.7667V36.3152H76.0499V32.7718C76.0499 32.4569 75.9885 32.2275 75.8657 32.0837C75.743 31.9365 75.5264 31.8629 75.216 31.8629C74.7726 31.8629 74.4657 32.0751 74.2951 32.4997L74.3002 36.3152H72.8217V32.777C72.8217 32.4552 72.7586 32.2224 72.6324 32.0786C72.5062 31.9348 72.2914 31.8629 71.9878 31.8629C71.5683 31.8629 71.2648 32.0375 71.0772 32.3867V36.3152H69.5986V30.7588H70.9851Z" fill="url(#paint8_radial_589_2926)"/>
<path d="M79.1093 33.3983C79.5424 33.0834 80.17 32.9242 80.992 32.9208H81.6724V32.6024C81.6724 32.3456 81.6059 32.1402 81.4729 31.9861C81.3433 31.8321 81.1369 31.755 80.8538 31.755C80.6049 31.755 80.4087 31.8149 80.2655 31.9348C80.1257 32.0546 80.0557 32.2189 80.0557 32.4278H78.5772C78.5772 32.1059 78.6761 31.8081 78.8739 31.5342C79.0718 31.2603 79.3514 31.0464 79.713 30.8923C80.0745 30.7348 80.4804 30.6561 80.9306 30.6561C81.6127 30.6561 82.1533 30.829 82.5523 31.1747C82.9548 31.5171 83.156 31.9998 83.156 32.6229V35.0314C83.1594 35.5586 83.2328 35.9575 83.376 36.2279V36.3152H81.8821C81.8139 36.1817 81.7645 36.0157 81.7338 35.8171C81.3757 36.2177 80.9101 36.4179 80.3371 36.4179C79.7948 36.4179 79.3446 36.2605 78.9865 35.9455C78.6318 35.6305 78.4544 35.2334 78.4544 34.7541C78.4544 34.1652 78.6727 33.7133 79.1093 33.3983ZM80.1274 35.1033C80.257 35.2231 80.4343 35.283 80.6594 35.283C80.8777 35.283 81.0789 35.2351 81.2631 35.1392C81.4473 35.04 81.5837 34.9081 81.6724 34.7438V33.7886H81.1199C80.3798 33.7886 79.9858 34.0454 79.9381 34.5589L79.933 34.6462C79.933 34.8311 79.9978 34.9835 80.1274 35.1033Z" fill="url(#paint9_radial_589_2926)"/>
<path d="M85.6884 30.7588L85.7294 31.4212C86.0261 30.9111 86.4371 30.6561 86.9623 30.6561C87.126 30.6561 87.2795 30.6783 87.4228 30.7228L87.4023 32.1505C87.2011 32.1231 87.0237 32.1094 86.8702 32.1094C86.3109 32.1094 85.9442 32.2994 85.7703 32.6794V36.3152H84.2918V30.7588H85.6884Z" fill="url(#paint10_radial_589_2926)"/>
<path d="M88.4102 30.7588V29.3928H89.8887V30.7588H90.8351V31.8475H89.8887V34.6206C89.8887 34.826 89.9279 34.9732 90.0063 35.0622C90.0848 35.1512 90.2349 35.1957 90.4566 35.1957C90.6203 35.1957 90.7652 35.1837 90.8914 35.1598V36.2844C90.6015 36.3734 90.3031 36.4179 89.9961 36.4179C88.9593 36.4179 88.4306 35.8924 88.4102 34.8414V31.8475H87.6018V30.7588H88.4102Z" fill="url(#paint11_radial_589_2926)"/>
<path d="M94.0889 32.3353C94.0889 31.6164 94.2151 30.983 94.4675 30.4352C94.7199 29.8875 95.0797 29.4681 95.547 29.1771C96.0176 28.8826 96.5633 28.7354 97.1841 28.7354C98.0436 28.7354 98.7359 28.9665 99.2612 29.4287C99.7864 29.8909 100.09 30.5397 100.172 31.375H98.637C98.5995 30.8923 98.4648 30.5431 98.2329 30.3274C98.0043 30.1083 97.6548 29.9987 97.1841 29.9987C96.6725 29.9987 96.2888 30.1836 96.033 30.5534C95.7806 30.9197 95.651 31.4897 95.6442 32.2634V32.8283C95.6442 33.6363 95.7653 34.2269 96.0074 34.6C96.253 34.9732 96.6384 35.1598 97.1636 35.1598C97.6377 35.1598 97.9907 35.0519 98.2226 34.8363C98.458 34.6171 98.5927 34.2799 98.6268 33.8246H100.162C100.104 34.6291 99.8069 35.2625 99.2714 35.7247C98.7393 36.1869 98.0368 36.4179 97.1636 36.4179C96.2086 36.4179 95.4566 36.0961 94.9075 35.4525C94.3618 34.8054 94.0889 33.9187 94.0889 32.7924V32.3353Z" fill="url(#paint12_radial_589_2926)"/>
<path d="M101.036 28.4273H102.515V31.3647C102.907 30.8923 103.4 30.6561 103.993 30.6561C105.194 30.6561 105.803 31.3562 105.82 32.7564V36.3152H104.341V32.7975C104.341 32.4791 104.273 32.2446 104.137 32.094C104 31.9399 103.773 31.8629 103.456 31.8629C103.023 31.8629 102.709 32.0306 102.515 32.3661V36.3152H101.036V28.4273Z" fill="url(#paint13_radial_589_2926)"/>
<path d="M107.37 33.3983C107.803 33.0834 108.431 32.9242 109.253 32.9208H109.933V32.6024C109.933 32.3456 109.867 32.1402 109.734 31.9861C109.604 31.8321 109.398 31.755 109.115 31.755C108.866 31.755 108.669 31.8149 108.526 31.9348C108.386 32.0546 108.316 32.2189 108.316 32.4278H106.838C106.838 32.1059 106.937 31.8081 107.135 31.5342C107.333 31.2603 107.612 31.0464 107.974 30.8923C108.335 30.7348 108.741 30.6561 109.191 30.6561C109.873 30.6561 110.414 30.829 110.813 31.1747C111.216 31.5171 111.417 31.9998 111.417 32.6229V35.0314C111.42 35.5586 111.494 35.9575 111.637 36.2279V36.3152H110.143C110.075 36.1817 110.025 36.0157 109.995 35.8171C109.636 36.2177 109.171 36.4179 108.598 36.4179C108.056 36.4179 107.605 36.2605 107.247 35.9455C106.893 35.6305 106.715 35.2334 106.715 34.7541C106.715 34.1652 106.933 33.7133 107.37 33.3983ZM108.388 35.1033C108.518 35.2231 108.695 35.283 108.92 35.283C109.138 35.283 109.34 35.2351 109.524 35.1392C109.708 35.04 109.844 34.9081 109.933 34.7438V33.7886H109.381C108.64 33.7886 108.247 34.0454 108.199 34.5589L108.194 34.6462C108.194 34.8311 108.258 34.9835 108.388 35.1033Z" fill="url(#paint14_radial_589_2926)"/>
<path d="M112.629 36.3152V30.7588H114.113V36.3152H112.629ZM112.542 29.3209C112.542 29.0983 112.616 28.9152 112.762 28.7714C112.912 28.6276 113.115 28.5557 113.371 28.5557C113.623 28.5557 113.825 28.6276 113.975 28.7714C114.125 28.9152 114.2 29.0983 114.2 29.3209C114.2 29.5468 114.123 29.7317 113.97 29.8755C113.82 30.0193 113.62 30.0912 113.371 30.0912C113.122 30.0912 112.921 30.0193 112.767 29.8755C112.617 29.7317 112.542 29.5468 112.542 29.3209Z" fill="url(#paint15_radial_589_2926)"/>
<path d="M115.305 36.3152V30.7588H116.696L116.743 31.4007C117.138 30.9043 117.669 30.6561 118.334 30.6561C118.92 30.6561 119.357 30.829 119.643 31.1747C119.93 31.5205 120.076 32.0375 120.083 32.7256V36.3152H118.605V32.7616C118.605 32.4466 118.537 32.2189 118.4 32.0786C118.264 31.9348 118.037 31.8629 117.72 31.8629C117.304 31.8629 116.992 32.0409 116.783 32.397V36.3152H115.305Z" fill="url(#paint16_radial_589_2926)"/>
<path d="M35.3293 21.9807L25.6556 12.2703L15.9773 21.9849L10.3486 16.3349L25.6556 0.970337L40.9575 16.3303L35.3293 21.9807ZM50.5611 25.9703L44.9323 20.3193L39.3038 25.9691L44.9327 31.6193L50.5611 25.9703ZM35.3293 29.9605L25.6556 39.6703L15.9775 29.9559L10.3458 35.6029L10.3486 35.6059L25.6556 50.9703L40.9655 35.6023L35.3293 29.9605ZM12.0073 25.9727L6.37846 20.3225L0.75 25.9723L6.37866 31.6225L12.0073 25.9727Z" fill="url(#paint17_radial_589_2926)"/>
<path d="M19.9467 25.9673H19.9444L25.6555 20.2341L31.362 25.9615L31.37 25.9693L31.362 25.9775L25.6555 31.7065L19.944 25.9733L19.9412 25.9701L19.9467 25.9673Z" fill="url(#paint18_radial_589_2926)"/>
<defs>
<radialGradient id="paint0_radial_589_2926" cx="0" cy="0" r="1" gradientUnits="userSpaceOnUse" gradientTransform="translate(8.66465 -8.58846) rotate(29.8808) scale(227.29 347.86)">
<stop stop-color="white"/>
<stop offset="1" stop-color="white" stop-opacity="0.23"/>
</radialGradient>
<radialGradient id="paint1_radial_589_2926" cx="0" cy="0" r="1" gradientUnits="userSpaceOnUse" gradientTransform="translate(8.66465 -8.58846) rotate(29.8808) scale(227.29 347.86)">
<stop stop-color="white"/>
<stop offset="1" stop-color="white" stop-opacity="0.23"/>
</radialGradient>
<radialGradient id="paint2_radial_589_2926" cx="0" cy="0" r="1" gradientUnits="userSpaceOnUse" gradientTransform="translate(8.66465 -8.58846) rotate(29.8808) scale(227.29 347.86)">
<stop stop-color="white"/>
<stop offset="1" stop-color="white" stop-opacity="0.23"/>
</radialGradient>
<radialGradient id="paint3_radial_589_2926" cx="0" cy="0" r="1" gradientUnits="userSpaceOnUse" gradientTransform="translate(8.66465 -8.58846) rotate(29.8808) scale(227.29 347.86)">
<stop stop-color="white"/>
<stop offset="1" stop-color="white" stop-opacity="0.23"/>
</radialGradient>
<radialGradient id="paint4_radial_589_2926" cx="0" cy="0" r="1" gradientUnits="userSpaceOnUse" gradientTransform="translate(8.66465 -8.58846) rotate(29.8808) scale(227.29 347.86)">
<stop stop-color="white"/>
<stop offset="1" stop-color="white" stop-opacity="0.23"/>
</radialGradient>
<radialGradient id="paint5_radial_589_2926" cx="0" cy="0" r="1" gradientUnits="userSpaceOnUse" gradientTransform="translate(8.66465 -8.58846) rotate(29.8808) scale(227.29 347.86)">
<stop stop-color="white"/>
<stop offset="1" stop-color="white" stop-opacity="0.23"/>
</radialGradient>
<radialGradient id="paint6_radial_589_2926" cx="0" cy="0" r="1" gradientUnits="userSpaceOnUse" gradientTransform="translate(8.66465 -8.58846) rotate(29.8808) scale(227.29 347.86)">
<stop stop-color="white"/>
<stop offset="1" stop-color="white" stop-opacity="0.23"/>
</radialGradient>
<radialGradient id="paint7_radial_589_2926" cx="0" cy="0" r="1" gradientUnits="userSpaceOnUse" gradientTransform="translate(8.66465 -8.58846) rotate(29.8808) scale(227.29 347.86)">
<stop stop-color="white"/>
<stop offset="1" stop-color="white" stop-opacity="0.23"/>
</radialGradient>
<radialGradient id="paint8_radial_589_2926" cx="0" cy="0" r="1" gradientUnits="userSpaceOnUse" gradientTransform="translate(8.66465 -8.58846) rotate(29.8808) scale(227.29 347.86)">
<stop stop-color="white"/>
<stop offset="1" stop-color="white" stop-opacity="0.23"/>
</radialGradient>
<radialGradient id="paint9_radial_589_2926" cx="0" cy="0" r="1" gradientUnits="userSpaceOnUse" gradientTransform="translate(8.66465 -8.58846) rotate(29.8808) scale(227.29 347.86)">
<stop stop-color="white"/>
<stop offset="1" stop-color="white" stop-opacity="0.23"/>
</radialGradient>
<radialGradient id="paint10_radial_589_2926" cx="0" cy="0" r="1" gradientUnits="userSpaceOnUse" gradientTransform="translate(8.66465 -8.58846) rotate(29.8808) scale(227.29 347.86)">
<stop stop-color="white"/>
<stop offset="1" stop-color="white" stop-opacity="0.23"/>
</radialGradient>
<radialGradient id="paint11_radial_589_2926" cx="0" cy="0" r="1" gradientUnits="userSpaceOnUse" gradientTransform="translate(8.66465 -8.58846) rotate(29.8808) scale(227.29 347.86)">
<stop stop-color="white"/>
<stop offset="1" stop-color="white" stop-opacity="0.23"/>
</radialGradient>
<radialGradient id="paint12_radial_589_2926" cx="0" cy="0" r="1" gradientUnits="userSpaceOnUse" gradientTransform="translate(8.66465 -8.58846) rotate(29.8808) scale(227.29 347.86)">
<stop stop-color="white"/>
<stop offset="1" stop-color="white" stop-opacity="0.23"/>
</radialGradient>
<radialGradient id="paint13_radial_589_2926" cx="0" cy="0" r="1" gradientUnits="userSpaceOnUse" gradientTransform="translate(8.66465 -8.58846) rotate(29.8808) scale(227.29 347.86)">
<stop stop-color="white"/>
<stop offset="1" stop-color="white" stop-opacity="0.23"/>
</radialGradient>
<radialGradient id="paint14_radial_589_2926" cx="0" cy="0" r="1" gradientUnits="userSpaceOnUse" gradientTransform="translate(8.66465 -8.58846) rotate(29.8808) scale(227.29 347.86)">
<stop stop-color="white"/>
<stop offset="1" stop-color="white" stop-opacity="0.23"/>
</radialGradient>
<radialGradient id="paint15_radial_589_2926" cx="0" cy="0" r="1" gradientUnits="userSpaceOnUse" gradientTransform="translate(8.66465 -8.58846) rotate(29.8808) scale(227.29 347.86)">
<stop stop-color="white"/>
<stop offset="1" stop-color="white" stop-opacity="0.23"/>
</radialGradient>
<radialGradient id="paint16_radial_589_2926" cx="0" cy="0" r="1" gradientUnits="userSpaceOnUse" gradientTransform="translate(8.66465 -8.58846) rotate(29.8808) scale(227.29 347.86)">
<stop stop-color="white"/>
<stop offset="1" stop-color="white" stop-opacity="0.23"/>
</radialGradient>
<radialGradient id="paint17_radial_589_2926" cx="0" cy="0" r="1" gradientUnits="userSpaceOnUse" gradientTransform="translate(8.66465 -8.58846) rotate(29.8808) scale(227.29 347.86)">
<stop stop-color="white"/>
<stop offset="1" stop-color="white" stop-opacity="0.23"/>
</radialGradient>
<radialGradient id="paint18_radial_589_2926" cx="0" cy="0" r="1" gradientUnits="userSpaceOnUse" gradientTransform="translate(8.66465 -8.58846) rotate(29.8808) scale(227.29 347.86)">
<stop stop-color="white"/>
<stop offset="1" stop-color="white" stop-opacity="0.23"/>
</radialGradient>
</defs>
</svg>
