<svg width="186" height="28" viewBox="0 0 186 28" fill="none" xmlns="http://www.w3.org/2000/svg">
<path d="M104.88 14.2549H184M104.88 14.2549L101 10.3357M104.88 14.2549L101 18.1741M101 10.3357L93 2.25488L85 10.3357M101 10.3357L97.0808 14.2549M101 10.3357L103.081 8.25488H167M97.0808 14.2549L93 18.3357L88.9192 14.2549M97.0808 14.2549L101 18.1741M97.0808 14.2549L93 10.1741L88.9192 14.2549M101 18.1741L93 26.2549L85 18.1741M101 18.1741L103.081 20.2549H167M81.12 14.2549H2M81.12 14.2549L85 10.3357M81.12 14.2549L85 18.1741M85 10.3357L88.9192 14.2549M85 10.3357L82.9192 8.25488H19M88.9192 14.2549L85 18.1741M85 18.1741L82.9192 20.2549H19" stroke="url(#paint0_linear_1096_4997)" stroke-width="1.17647"/>
<rect x="151" y="12.2549" width="4" height="4" fill="#710000"/>
<rect width="4" height="4" transform="matrix(-1 0 0 1 35 12.2549)" fill="#710000"/>
<defs>
<linearGradient id="paint0_linear_1096_4997" x1="93.5436" y1="25.7094" x2="93.5436" y2="-10.836" gradientUnits="userSpaceOnUse">
<stop stop-color="#FF0000"/>
<stop offset="1" stop-opacity="0"/>
</linearGradient>
</defs>
</svg>
