<svg width="251" height="251" viewBox="0 0 251 251" fill="none" xmlns="http://www.w3.org/2000/svg">
<path d="M48.5 3.47058L8.5 3.47058" stroke="url(#paint0_linear_1111_3080)" stroke-width="2"/>
<path d="M3.5 48.4706L3.5 8.47058" stroke="url(#paint1_linear_1111_3080)" stroke-width="2"/>
<rect x="3.56055" y="6.59177" width="4.32833" height="4.32833" rx="2.16416" transform="rotate(-135 3.56055 6.59177)" stroke="url(#paint2_linear_1111_3080)" stroke-width="2"/>
<path d="M247.5 48.4706L247.5 8.47058" stroke="url(#paint3_linear_1111_3080)" stroke-width="2"/>
<path d="M202.5 3.47058L242.5 3.47058" stroke="url(#paint4_linear_1111_3080)" stroke-width="2"/>
<rect x="244.379" y="3.53117" width="4.32833" height="4.32833" rx="2.16416" transform="rotate(-45 244.379 3.53117)" stroke="url(#paint5_linear_1111_3080)" stroke-width="2"/>
<path d="M48.5 247.471H8.5" stroke="url(#paint6_linear_1111_3080)" stroke-width="2"/>
<path d="M3.5 202.471L3.5 242.471" stroke="url(#paint7_linear_1111_3080)" stroke-width="2"/>
<rect width="4.32833" height="4.32833" rx="2.16416" transform="matrix(-0.707107 0.707107 0.707107 0.707107 3.56055 244.349)" stroke="url(#paint8_linear_1111_3080)" stroke-width="2"/>
<path d="M247.5 202.471L247.5 242.471" stroke="url(#paint9_linear_1111_3080)" stroke-width="2"/>
<path d="M202.5 247.471L242.5 247.471" stroke="url(#paint10_linear_1111_3080)" stroke-width="2"/>
<rect width="4.32833" height="4.32833" rx="2.16416" transform="matrix(0.707107 0.707107 0.707107 -0.707107 244.379 247.41)" stroke="url(#paint11_linear_1111_3080)" stroke-width="2"/>
<defs>
<linearGradient id="paint0_linear_1111_3080" x1="8.5" y1="2.93549" x2="53.2619" y2="2.93546" gradientUnits="userSpaceOnUse">
<stop stop-color="#FF0000"/>
<stop offset="1" stop-opacity="0"/>
</linearGradient>
<linearGradient id="paint1_linear_1111_3080" x1="14.2018" y1="8.47058" x2="14.2018" y2="53.2325" gradientUnits="userSpaceOnUse">
<stop stop-color="#FF0000"/>
<stop offset="1" stop-opacity="0"/>
</linearGradient>
<linearGradient id="paint2_linear_1111_3080" x1="7.88887" y1="8.9078" x2="2.12287" y2="8.9078" gradientUnits="userSpaceOnUse">
<stop stop-color="#FF0000"/>
<stop offset="1" stop-opacity="0"/>
</linearGradient>
<linearGradient id="paint3_linear_1111_3080" x1="248.035" y1="8.47058" x2="248.035" y2="53.2325" gradientUnits="userSpaceOnUse">
<stop stop-color="#FF0000"/>
<stop offset="1" stop-opacity="0"/>
</linearGradient>
<linearGradient id="paint4_linear_1111_3080" x1="242.5" y1="14.1723" x2="197.738" y2="14.1723" gradientUnits="userSpaceOnUse">
<stop stop-color="#FF0000"/>
<stop offset="1" stop-opacity="0"/>
</linearGradient>
<linearGradient id="paint5_linear_1111_3080" x1="248.707" y1="5.84721" x2="242.941" y2="5.84721" gradientUnits="userSpaceOnUse">
<stop stop-color="#FF0000"/>
<stop offset="1" stop-opacity="0"/>
</linearGradient>
<linearGradient id="paint6_linear_1111_3080" x1="8.5" y1="248.006" x2="53.2619" y2="248.006" gradientUnits="userSpaceOnUse">
<stop stop-color="#FF0000"/>
<stop offset="1" stop-opacity="0"/>
</linearGradient>
<linearGradient id="paint7_linear_1111_3080" x1="14.2018" y1="242.471" x2="14.2018" y2="197.709" gradientUnits="userSpaceOnUse">
<stop stop-color="#FF0000"/>
<stop offset="1" stop-opacity="0"/>
</linearGradient>
<linearGradient id="paint8_linear_1111_3080" x1="4.32833" y1="2.31604" x2="-1.43768" y2="2.31604" gradientUnits="userSpaceOnUse">
<stop stop-color="#FF0000"/>
<stop offset="1" stop-opacity="0"/>
</linearGradient>
<linearGradient id="paint9_linear_1111_3080" x1="248.035" y1="242.471" x2="248.035" y2="197.709" gradientUnits="userSpaceOnUse">
<stop stop-color="#FF0000"/>
<stop offset="1" stop-opacity="0"/>
</linearGradient>
<linearGradient id="paint10_linear_1111_3080" x1="242.5" y1="236.769" x2="197.738" y2="236.769" gradientUnits="userSpaceOnUse">
<stop stop-color="#FF0000"/>
<stop offset="1" stop-opacity="0"/>
</linearGradient>
<linearGradient id="paint11_linear_1111_3080" x1="4.32833" y1="2.31604" x2="-1.43768" y2="2.31604" gradientUnits="userSpaceOnUse">
<stop stop-color="#FF0000"/>
<stop offset="1" stop-opacity="0"/>
</linearGradient>
</defs>
</svg>
