<svg width="18" height="17" viewBox="0 0 18 17" fill="none" xmlns="http://www.w3.org/2000/svg">
<path d="M16.6682 0.143705C16.4458 0.159584 16.2275 0.211083 16.0218 0.296192H16.019C15.8217 0.373608 14.8808 0.765381 13.4582 1.35609L8.34418 3.48527C4.6756 5.01342 1.06963 6.51764 1.06963 6.51764L1.11278 6.50169C0.93285 6.56539 0.761983 6.65181 0.604418 6.7588C0.443989 6.85967 0.305896 6.99166 0.198485 7.14682C0.0457636 7.3698 -0.0222727 7.63906 0.00642519 7.90691C0.0351795 8.10058 0.105281 8.28597 0.212066 8.45076C0.318852 8.61555 0.459876 8.75596 0.625758 8.86265C0.768015 8.96281 0.922591 9.04464 1.08575 9.10615H1.0886L4.47027 10.2322C4.62154 10.7141 5.50122 13.5728 5.71178 14.2311C5.79071 14.5291 5.92569 14.8097 6.10965 15.0583C6.18137 15.1538 6.27027 15.2354 6.37189 15.299C6.41236 15.3225 6.4549 15.3422 6.49898 15.3581C6.51232 15.3654 6.52699 15.37 6.54214 15.3717L6.50705 15.3637C6.51632 15.3677 6.52535 15.3723 6.53408 15.3773C6.56065 15.3847 6.58776 15.39 6.61517 15.3933C6.77938 15.4384 6.95168 15.4466 7.11953 15.4175C7.28737 15.3884 7.44654 15.3226 7.58542 15.2249L7.60961 15.2061L9.60608 13.4072L12.9527 15.9474L13.0285 15.9793C13.313 16.1096 13.6273 16.1631 13.9394 16.1344C14.2516 16.1058 14.5505 15.9959 14.8059 15.816C15.033 15.6335 15.2119 15.3993 15.3276 15.1334L15.3517 15.0719L17.9367 1.9651C18.0172 1.66386 18.021 1.34757 17.9476 1.04455C17.864 0.747026 17.671 0.491161 17.4065 0.327158C17.1845 0.194256 16.9273 0.130347 16.6682 0.143705ZM16.598 1.55127C16.5997 1.59193 16.595 1.63259 16.5842 1.67185V1.67983L14.0234 14.6506C14.0041 14.6891 13.9764 14.7229 13.9424 14.7496C13.8883 14.7923 13.8451 14.819 13.6204 14.7308L9.52736 11.6257L7.05477 13.8553L7.57641 10.5738L14.2629 4.40676C14.5389 4.15246 14.4469 4.09897 14.4469 4.09897C14.4659 3.78837 14.0301 4.00795 14.0301 4.00795L5.5937 9.17325L5.59085 9.15964L1.55049 7.81354V7.81072C1.54764 7.81072 1.54243 7.80791 1.53958 7.80791C1.54701 7.8057 1.5543 7.80304 1.5614 7.79993L1.58321 7.78914L1.60502 7.78116L8.88242 4.74833C10.7196 3.98261 12.57 3.21173 13.9926 2.61774C15.4153 2.02375 16.4681 1.59256 16.5273 1.56863C16.5866 1.5447 16.5572 1.54752 16.5956 1.54752L16.598 1.55127Z" fill="url(#paint0_linear_435:353)"/>
<defs>
<linearGradient id="paint0_linear_435:353" x1="9" y1="0.141968" x2="9" y2="16.142" gradientUnits="userSpaceOnUse">
<stop stop-color="#FFFFDA"/>
<stop offset="1" stop-color="#FFFFDA" stop-opacity="0.22"/>
</linearGradient>
</defs>
</svg>
