<svg width="253" height="50" viewBox="0 0 253 50" fill="none" xmlns="http://www.w3.org/2000/svg">
<path d="M22.8661 13.9L9.78721 5H38.0416L24.8629 13.9C24.2639 14.3 23.4651 14.3 22.8661 13.9ZM45.8291 26.8V19.1L39.9386 23.1C38.9402 23.8 38.441 24.9 38.441 26V33.7L44.3315 29.7C45.23 29.1 45.8291 28 45.8291 26.8ZM25.1624 36.5L33.5489 45H14.28L22.6664 36.5C23.3653 35.9 24.4635 35.9 25.1624 36.5ZM9.48769 33.7V26C9.48769 24.8 8.88866 23.7 7.99011 23.1L2.09961 19.1V26.8C2.09961 28 2.69864 29.1 3.59719 29.7L9.48769 33.7Z" fill="white"/>
<path d="M45.8293 12.7V5L28.5572 16.7C26.9597 17.8 26.0612 19.5 26.0612 21.5V29C26.0612 29.9 26.4605 30.8 27.0596 31.5L33.9485 38.4V24.9C33.9485 23.4 34.6473 22.1 35.8454 21.2L44.2319 15.5C45.2303 15 45.8293 13.9 45.8293 12.7ZM21.6683 29C21.6683 29.9 21.2689 30.8 20.6699 31.5L13.781 38.4V25C13.781 23.5 13.0821 22.2 11.8841 21.3L3.49758 15.6C2.59903 15 2 13.9 2 12.7V5L19.1723 16.7C20.7697 17.8 21.6683 19.5 21.6683 21.5V29Z" fill="white"/>
<path d="M95.15 17.7C96.9471 15.9 99.5429 14.9 102.538 14.9C107.33 14.9 111.024 17.6 112.123 21.8L112.222 22H108.429V21.9C107.43 19.5 105.234 18.4 102.638 18.4C100.641 18.4 99.0437 19.1 97.8456 20.3C96.5477 21.3 95.8488 23 95.8488 25C95.8488 27 96.5477 28.7 97.7458 29.9C98.9438 31.1 100.641 31.8 102.638 31.8C106.032 31.8 108.129 29.9 108.129 28V27.9C108.129 27.8 108.129 27.7 108.029 27.7C108.029 27.7 107.929 27.6 107.83 27.6H101.54V24.4H110.126C110.625 24.4 111.124 24.6 111.424 24.9C111.723 25.2 111.923 25.7 111.923 26.2V26.8C111.923 29.6 110.825 31.7 109.127 33.1C107.43 34.5 105.034 35.2 102.538 35.2C99.5429 35.2 96.9471 34.2 95.0501 32.4C93.1532 30.6 92.1548 28.1 92.1548 25C92.2546 22 93.3529 19.5 95.15 17.7Z" fill="white"/>
<path fill-rule="evenodd" clip-rule="evenodd" d="M201.578 14.9C200.779 14.9 200.18 15.1 199.681 15.5L198.583 17.3L191.894 34.9H195.588L197.485 29.7H205.971L207.868 34.9H211.662L204.972 17.3C204.673 16.5 204.274 15.9 203.774 15.5C203.076 15.1 202.476 14.9 201.578 14.9ZM201.378 18.8L198.583 26.4H204.473L201.678 18.8C201.678 18.7 201.578 18.7 201.578 18.7H201.378C201.478 18.7 201.478 18.7 201.378 18.8Z" fill="white"/>
<path d="M65.3979 15.1H82.1709V18.5H75.5815V34.9H71.9873V18.5H65.3979V15.1ZM88.9599 15.1H85.3657V35H88.9599V15.1ZM116.515 15.9C117.115 15.3 117.813 15 118.812 15H129.694V18.4H119.81C119.611 18.4 119.411 18.5 119.311 18.6C119.211 18.7 119.111 18.8 119.111 19V23H129.095V26.3H119.111V30.8C119.111 31 119.211 31.2 119.311 31.3C119.411 31.4 119.611 31.5 119.81 31.5H129.794V34.9H118.812C117.813 34.9 117.015 34.6 116.515 34.1C115.916 33.5 115.617 32.8 115.617 31.8V18.2C115.717 17.3 116.016 16.5 116.515 15.9Z" fill="white"/>
<path fill-rule="evenodd" clip-rule="evenodd" d="M133.688 18.2C133.688 16.4 134.985 15 136.882 15H142.973C144.869 15 146.567 15.6 147.765 16.7C148.963 17.8 149.762 19.5 149.762 21.5C149.762 24.5 147.765 26.5 145.169 27.4L150.261 34.8H146.068L141.475 27.9H137.282V34.8H133.688V18.2ZM137.282 19.1C137.282 18.8 137.581 18.5 137.881 18.5H142.973C143.871 18.5 144.67 18.8 145.269 19.3C145.868 19.8 146.167 20.6 146.167 21.6C146.167 22.6 145.768 23.4 145.269 23.9C144.67 24.4 143.871 24.7 142.973 24.7H137.282V19.1Z" fill="white"/>
<path d="M171.626 15.1H154.854V18.5H161.443V34.9H165.037V18.5H171.626V15.1Z" fill="white"/>
<path fill-rule="evenodd" clip-rule="evenodd" d="M177.517 15.1C175.72 15.1 174.322 16.4 174.322 18.3V35H177.916V28H182.11L186.702 34.9H190.896L185.804 27.5C188.3 26.6 190.396 24.6 190.396 21.6C190.396 19.6 189.598 17.9 188.4 16.8C187.201 15.7 185.504 15.1 183.607 15.1H177.517ZM178.516 18.5C178.116 18.5 177.916 18.8 177.916 19.1V24.7H183.607C184.506 24.7 185.305 24.4 185.904 23.9C186.503 23.4 186.802 22.6 186.802 21.6C186.802 20.6 186.403 19.8 185.904 19.3C185.305 18.8 184.506 18.5 183.607 18.5H178.516ZM217.353 15.1C216.354 15.1 215.556 15.4 215.057 16C214.458 16.6 214.158 17.4 214.158 18.3V31.8C214.158 32.8 214.458 33.6 215.057 34.1C215.656 34.7 216.454 34.9 217.353 34.9H221.846C224.741 34.9 227.337 34 229.234 32.2C231.131 30.5 232.229 28 232.229 24.9C232.229 21.8 231.131 19.3 229.234 17.6C227.337 15.9 224.741 14.9 221.846 14.9H217.353V15.1ZM217.852 18.7C217.752 18.8 217.652 19 217.652 19.2V31C217.652 31.2 217.752 31.3 217.852 31.4C217.952 31.5 218.152 31.6 218.351 31.6H221.846C223.743 31.6 225.44 31 226.638 29.8C227.836 28.7 228.635 27 228.635 25C228.635 23 227.936 21.4 226.638 20.2C225.44 19.1 223.743 18.4 221.846 18.4H218.351C218.152 18.5 217.952 18.6 217.852 18.7Z" fill="white"/>
<path d="M236.721 15.9C237.321 15.3 238.119 15 239.018 15H249.9V18.4H240.016C239.816 18.4 239.617 18.5 239.517 18.6C239.417 18.7 239.317 18.8 239.317 19V23H249.301V26.3H239.317V30.8C239.317 31 239.417 31.2 239.517 31.3C239.617 31.4 239.816 31.5 240.016 31.5H250V34.9H239.018C238.019 34.9 237.221 34.6 236.721 34.1C236.122 33.5 235.823 32.8 235.823 31.8V18.2C235.823 17.3 236.122 16.5 236.721 15.9ZM157.349 33.1C157.349 34.2 156.451 35.2 155.253 35.2C154.155 35.2 153.156 34.3 153.156 33.1C153.156 32 154.055 31 155.253 31C156.451 31 157.349 32 157.349 33.1Z" fill="white"/>
</svg>
