<svg width="45" height="45" viewBox="0 0 45 45" fill="none" xmlns="http://www.w3.org/2000/svg">
<path d="M16.1991 35.8666C28.6777 35.8666 35.5017 25.1979 35.5017 15.9464C35.5017 15.6434 35.4957 15.3417 35.4826 15.0414C36.8072 14.0532 37.9586 12.8199 38.8667 11.416C37.6511 11.9736 36.343 12.349 34.9707 12.5183C36.3714 11.6515 37.4467 10.2804 37.954 8.64585C36.6432 9.44778 35.1916 10.0306 33.6461 10.3453C32.4081 8.98446 30.6456 8.1333 28.694 8.1333C24.9476 8.1333 21.9095 11.2687 21.9095 15.1336C21.9095 15.683 21.969 16.2173 22.0854 16.7299C16.4469 16.4371 11.4472 13.6512 8.10103 9.41502C7.5184 10.4497 7.18245 11.6515 7.18245 12.9339C7.18245 15.3629 8.38016 17.5072 10.2015 18.7617C9.08842 18.7262 8.04284 18.4109 7.12897 17.8861C7.12797 17.9154 7.12796 17.9441 7.12796 17.9755C7.12796 21.3661 9.46646 24.197 12.5707 24.8385C12.0006 24.9989 11.4008 25.0849 10.7818 25.0849C10.3453 25.0849 9.92006 25.0406 9.50673 24.9587C10.3704 27.7405 12.8749 29.7648 15.8442 29.8213C13.5223 31.6995 10.5973 32.8182 7.41824 32.8182C6.87132 32.8182 6.33101 32.7861 5.79999 32.7213C8.80247 34.7073 12.3676 35.8662 16.1994 35.8662" fill="url(#paint0_linear_1308_5545)"/>
<defs>
<linearGradient id="paint0_linear_1308_5545" x1="22.3333" y1="8.1333" x2="22.3333" y2="35.8666" gradientUnits="userSpaceOnUse">
<stop stop-color="#FFFFDA"/>
<stop offset="1" stop-color="#FFFFDA" stop-opacity="0.22"/>
</linearGradient>
</defs>
</svg>
