<svg width="95" height="35" viewBox="0 0 95 35" fill="none" xmlns="http://www.w3.org/2000/svg">
<g clip-path="url(#clip0_592_2524)">
<path d="M28.8935 28.1166L22.816 17.8938L28.8935 7.67106L31.8233 17.8938L28.8935 28.1166ZM15.3673 27.1191L7.73122 19.5456H19.8862L25.9637 29.7683L15.3673 27.1191ZM15.3673 8.63734L25.9328 5.98806L19.8553 16.2108H7.70028L15.3673 8.63734ZM30.8883 0.970337L17.0812 4.55462L15.0242 8.07634L10.8793 8.04506L0.75 17.8938L10.8793 27.7426L15.0242 27.7113L17.0812 31.2331L30.8883 34.8486L34.597 21.4156L32.5087 17.9251L34.597 14.4343L30.8883 0.970337ZM62.2417 10.9126C60.403 10.9126 59.1562 11.6916 58.2212 13.1253H58.159V11.2866H54.9178V24.8128H58.2212V17.1458C58.2212 15.3071 59.3745 14.0291 60.964 14.0291C62.46 14.0291 63.582 14.9331 63.582 16.5226V24.8441H66.8858V15.9926C66.9167 13.0318 65.0467 10.9126 62.2417 10.9126ZM49.8997 19.1093C49.8997 20.9171 48.8712 22.1636 47.1882 22.1636C45.6613 22.1636 44.695 21.2911 44.695 19.7016V11.2866H41.3912V20.3248C41.3912 23.2856 43.0742 25.2181 46.0975 25.2181C47.9988 25.2181 49.0582 24.5011 49.9623 23.2546H50.0558V24.8441H53.2348V11.2866H49.931V19.1093H49.8997ZM68.6623 11.2866H71.9657V24.8128H68.6623V11.2866ZM68.6623 7.07912H71.9657V9.79062H68.6623V7.07912ZM90.697 11.2866L88.7335 17.3951C88.2973 18.6418 87.9542 20.3561 87.9542 20.3561H87.8607C87.8607 20.3561 87.4245 18.6418 86.9883 17.3951L84.7752 11.2866H81.2222L84.8687 20.9171C85.648 22.9741 85.8972 23.8466 85.8972 24.5946C85.8972 25.7166 85.3053 26.4336 83.9028 26.4336H82.6247V29.2696H84.7443C87.4867 29.2696 88.453 28.1788 89.4815 25.1868L94.25 11.3176H90.697V11.2866ZM78.1367 20.8546V13.6863H80.2563V11.3176H78.1367V7.07912H74.8333V11.2866H72.9633V13.6551H74.8333V21.6026C74.8333 24.1583 76.7655 24.8441 78.5107 24.8441C79.9445 24.8441 80.3185 24.7816 80.3185 24.7816V22.1636H79.477C78.6977 22.1948 78.1367 21.8521 78.1367 20.8546Z" fill="url(#paint0_radial_592_2524)"/>
</g>
<defs>
<radialGradient id="paint0_radial_592_2524" cx="0" cy="0" r="1" gradientUnits="userSpaceOnUse" gradientTransform="translate(6.95129 -5.50638) rotate(26.4219) scale(172.423 243.439)">
<stop stop-color="white"/>
<stop offset="1" stop-color="white" stop-opacity="0.23"/>
</radialGradient>
<clipPath id="clip0_592_2524">
<rect width="93.5" height="34" fill="white" transform="translate(0.75 0.970337)"/>
</clipPath>
</defs>
</svg>
