<svg width="24" height="15" viewBox="0 0 24 15" fill="none" xmlns="http://www.w3.org/2000/svg">
<path fill-rule="evenodd" clip-rule="evenodd" d="M1.70217 1.84572C1.71105 1.94186 1.75002 2.17107 1.86021 2.54804C1.98235 2.96586 2.17788 3.51813 2.46635 4.18275C3.04262 5.51039 3.98329 7.27127 5.43115 9.28562C7.38074 11.9304 10.0305 13.3309 12.2544 13.3309C12.6014 13.3309 12.8491 13.311 13.0242 13.2805C13.1484 13.2589 13.2196 13.2346 13.2567 13.2186C13.2583 13.2009 13.2597 13.176 13.2597 13.142V11.0309C13.2597 10.6634 13.3121 10.2128 13.6409 9.89141C13.972 9.56779 14.4062 9.55313 14.6417 9.55313C14.9855 9.55313 15.3392 9.67204 15.7699 9.93105C16.1959 10.1873 16.746 10.6106 17.4979 11.2889L17.5083 11.2983L17.5183 11.3081C17.9562 11.736 18.2987 12.0994 18.5779 12.4004C18.6359 12.463 18.6903 12.5218 18.7416 12.5774C18.9434 12.7959 19.0977 12.9629 19.2377 13.0997C19.4103 13.2684 19.5168 13.3458 19.5979 13.3866C19.6642 13.42 19.7389 13.442 19.8711 13.442H22.2093C22.186 13.3989 22.1577 13.3506 22.1233 13.2969L22.0778 13.2257L22.0505 13.1457C21.9741 12.9215 21.7744 12.5775 21.429 12.1184C21.0933 11.6722 20.6558 11.1635 20.1519 10.6162L20.1428 10.6063L20.1341 10.5962C19.8859 10.305 19.5523 10.0023 19.2202 9.70596C19.2037 9.69123 19.1872 9.67648 19.1707 9.66172C19.0276 9.53418 18.8839 9.40602 18.7619 9.29018C18.6404 9.17473 18.4984 9.03289 18.3961 8.88812C18.2069 8.63944 18.0098 8.31723 18.0521 7.9041C18.071 7.71912 18.1341 7.56612 18.1835 7.46037C18.2143 7.3945 18.2575 7.31179 18.2951 7.23986C18.311 7.20947 18.3259 7.181 18.3384 7.15655L18.3624 7.10957L18.3932 7.06674L18.4011 7.0558L18.4252 7.0221C18.4465 6.99232 18.4779 6.9482 18.5181 6.89143C18.5985 6.77788 18.7141 6.61379 18.854 6.41259C19.134 6.00983 19.5102 5.45996 19.8963 4.86986C20.2833 4.2784 20.6758 3.65333 20.9905 3.09867C21.318 2.52158 21.5209 2.08906 21.5802 1.85744L21.5841 1.84204C21.5815 1.84202 21.5789 1.84202 21.5763 1.84202H19.189C19.0477 1.84202 18.9666 1.88132 18.9207 1.91491C18.8693 1.9526 18.8404 1.99947 18.8284 2.03463L18.8193 2.0611L18.8082 2.08675L18.1658 1.80868C18.8082 2.08675 18.8083 2.08665 18.8082 2.08675L18.8077 2.08793L18.8068 2.09017L18.8035 2.09774L18.7914 2.12505C18.781 2.14854 18.7659 2.18243 18.7462 2.22579C18.7069 2.31248 18.6493 2.4371 18.5751 2.592C18.4268 2.90154 18.2114 3.3334 17.9412 3.82594C17.405 4.80313 16.6356 6.05209 15.7297 7.05553L15.7151 7.07177L15.6994 7.08706C15.6884 7.09783 15.6774 7.10857 15.6665 7.11925C15.4116 7.36847 15.1816 7.59337 14.9703 7.74824C14.7177 7.93346 14.4337 8.06424 14.0733 8.06424C13.7896 8.06424 13.4958 7.92702 13.295 7.65226C13.1046 7.39171 13.0323 7.05905 13.0323 6.69757V2.03091C13.0323 1.9536 13.0305 1.89168 13.0275 1.84202H9.54266C9.54698 1.84802 9.55144 1.85423 9.55607 1.86065C9.56053 1.86685 9.56514 1.87323 9.56986 1.87978C9.61394 1.94088 9.6689 2.01707 9.72471 2.10071C9.99433 2.50479 10.271 3.06368 10.3379 3.97989L10.3398 4.00536V7.47535C10.3398 7.68206 10.3325 7.87028 10.3105 8.03496C10.2894 8.19354 10.2485 8.38217 10.1489 8.55737C10.0348 8.75807 9.86365 8.90629 9.65151 8.98798C9.46993 9.05789 9.29399 9.06424 9.18506 9.06424C8.88309 9.06424 8.62476 8.93044 8.44701 8.81328C8.25446 8.68636 8.06489 8.51723 7.88369 8.32936C7.51968 7.95196 7.12612 7.43243 6.73543 6.82722C5.95184 5.61337 5.13087 3.97852 4.54371 2.25686C4.43904 1.94996 4.3731 1.87421 4.35856 1.86061C4.35706 1.86001 4.35454 1.85909 4.35077 1.85797C4.33127 1.85215 4.28267 1.84202 4.18311 1.84202H1.79581C1.75846 1.84202 1.72749 1.84352 1.70217 1.84572ZM17.5147 1.55056C17.7308 0.959593 18.3236 0.442017 19.189 0.442017H21.5763C21.9886 0.442017 22.5048 0.536795 22.8199 0.960256C23.1379 1.3876 23.0633 1.88713 22.9241 2.25081C22.8045 2.6803 22.5195 3.2408 22.2082 3.78953C21.8728 4.3807 21.4624 5.03341 21.0678 5.6364C20.6724 6.24074 20.2884 6.80198 20.0035 7.21173C19.861 7.41677 19.743 7.58428 19.6605 7.70076C19.6192 7.75901 19.5868 7.80452 19.5646 7.83561L19.5605 7.84137C19.5472 7.86692 19.5344 7.89139 19.5228 7.91348C19.5157 7.92705 19.5091 7.93973 19.5031 7.95119C19.494 7.96875 19.486 7.98419 19.479 7.99798C19.4896 8.01292 19.5022 8.02992 19.517 8.04921L19.5289 8.06474L19.5398 8.08081C19.5398 8.08081 19.5433 8.08568 19.5517 8.09593C19.5606 8.10674 19.5731 8.12103 19.5899 8.13912C19.624 8.17586 19.6689 8.2208 19.7261 8.27511C19.8311 8.37478 19.9574 8.48744 20.1045 8.61866C20.1202 8.6327 20.1362 8.64694 20.1524 8.66141C20.471 8.94571 20.8718 9.30563 21.1905 9.67738C21.7063 10.2378 22.175 10.7813 22.5477 11.2767C22.8904 11.7322 23.1861 12.1911 23.3459 12.6116C23.4907 12.8481 23.6021 13.0864 23.6586 13.3232C23.7217 13.5875 23.7255 13.8943 23.5778 14.183C23.2804 14.7644 22.6284 14.842 22.2584 14.842H19.8711C19.5485 14.842 19.2537 14.7807 18.9683 14.637C18.6977 14.5008 18.4703 14.3073 18.2592 14.1009C18.091 13.9366 17.905 13.7352 17.7002 13.5134C17.6517 13.4608 17.602 13.4071 17.5513 13.3524C17.282 13.0619 16.9598 12.7202 16.5498 12.3191C15.8297 11.6701 15.3597 11.3181 15.0483 11.1308C14.8941 11.038 14.7918 10.9937 14.7284 10.9724C14.6967 10.9618 14.6749 10.957 14.6611 10.9549C14.6602 10.9775 14.6597 11.0028 14.6597 11.0309V13.142C14.6597 13.3203 14.643 13.5487 14.5496 13.7786C14.4489 14.0267 14.2766 14.2339 14.0354 14.3864C13.6091 14.656 12.9996 14.7309 12.2544 14.7309C9.47729 14.7309 6.44431 13.0214 4.3016 10.1127L4.2968 10.1062C2.79032 8.01084 1.79917 6.1618 1.18211 4.74018C0.873769 4.02979 0.657201 3.42234 0.516451 2.94085C0.382124 2.48133 0.300049 2.08112 0.300049 1.80868C0.300049 1.584 0.333581 1.19903 0.624283 0.879379C0.924297 0.549492 1.35474 0.442017 1.79581 0.442017H4.18311C4.55837 0.442017 4.95362 0.5165 5.28752 0.813186C5.58777 1.07997 5.74856 1.45249 5.86877 1.80496C6.41841 3.41663 7.18897 4.94844 7.91164 6.06792C8.27409 6.62938 8.61235 7.06819 8.89135 7.35745C8.90793 7.37463 8.92407 7.39106 8.93979 7.40675V4.05749C8.89036 3.43413 8.71483 3.10957 8.56016 2.87777C8.51926 2.81647 8.47897 2.76059 8.4333 2.69725C8.42898 2.69124 8.4246 2.68517 8.42017 2.67903C8.37277 2.61323 8.31422 2.53169 8.26143 2.44648C8.15149 2.26907 8.03034 2.02025 8.03034 1.69757C8.03034 1.3782 8.17722 1.07944 8.36511 0.86956C8.56566 0.64554 8.88609 0.442017 9.29874 0.442017H13.0502C13.3905 0.442017 13.8679 0.502145 14.1735 0.92888C14.3076 1.11608 14.3662 1.32044 14.3957 1.4931C14.4251 1.66567 14.4323 1.85065 14.4323 2.03091V6.36545C14.5077 6.29371 14.5969 6.207 14.7049 6.10142C15.4984 5.21826 16.2014 4.08638 16.7137 3.15254C16.9693 2.68675 17.173 2.27833 17.3125 1.98717C17.3822 1.84172 17.4356 1.72589 17.4714 1.64722C17.4892 1.60789 17.5026 1.57788 17.5113 1.55813L17.5147 1.55056Z" fill="url(#paint0_linear_435:346)"/>
<defs>
<linearGradient id="paint0_linear_435:346" x1="12" y1="0.442017" x2="12" y2="14.842" gradientUnits="userSpaceOnUse">
<stop stop-color="#FFFFDA"/>
<stop offset="1" stop-color="#FFFFDA" stop-opacity="0.22"/>
</linearGradient>
</defs>
</svg>
