<svg width="19" height="19" viewBox="0 0 19 19" fill="none" xmlns="http://www.w3.org/2000/svg">
<path fill-rule="evenodd" clip-rule="evenodd" d="M15.403 2.775C14.5714 1.93788 13.5819 1.27411 12.4919 0.822145C11.4019 0.370178 10.233 0.138998 9.053 0.141997C4.105 0.141997 0.077 4.169 0.075 9.119C0.075 10.701 0.488 12.245 1.273 13.607L0 18.258L4.759 17.009C6.07539 17.7256 7.5502 18.1013 9.049 18.102H9.053C14 18.102 18.028 14.075 18.03 9.125C18.0334 7.94548 17.803 6.77699 17.3521 5.68706C16.9012 4.59712 16.2387 3.60737 15.403 2.775ZM9.053 16.587H9.05C7.71352 16.5871 6.40163 16.2276 5.252 15.546L4.98 15.384L2.156 16.125L2.909 13.372L2.732 13.09C1.98479 11.9004 1.58923 10.5238 1.591 9.119C1.593 5.005 4.94 1.658 9.056 1.658C10.0363 1.65582 11.0072 1.84808 11.9127 2.22365C12.8181 2.59922 13.6401 3.15064 14.331 3.846C15.0256 4.53804 15.5762 5.36089 15.9509 6.26699C16.3256 7.1731 16.517 8.14448 16.514 9.125C16.512 13.239 13.165 16.587 9.053 16.587ZM13.146 10.998C12.921 10.885 11.819 10.343 11.613 10.268C11.408 10.193 11.259 10.156 11.109 10.38C10.959 10.604 10.529 11.109 10.398 11.259C10.267 11.409 10.136 11.427 9.912 11.315C9.688 11.203 8.965 10.966 8.108 10.202C7.441 9.607 6.991 8.873 6.86 8.648C6.729 8.423 6.846 8.302 6.959 8.19C7.06 8.09 7.183 7.928 7.295 7.797C7.407 7.666 7.444 7.573 7.519 7.423C7.594 7.273 7.557 7.142 7.5 7.03C7.444 6.917 6.995 5.813 6.808 5.364C6.627 4.929 6.442 4.987 6.304 4.981C6.16108 4.97515 6.01804 4.97248 5.875 4.973C5.76126 4.97589 5.64934 5.00226 5.54626 5.05044C5.44318 5.09863 5.35117 5.16759 5.276 5.253C5.07 5.478 4.491 6.02 4.491 7.124C4.491 8.228 5.295 9.295 5.407 9.445C5.519 9.595 6.989 11.86 9.239 12.832C9.775 13.063 10.193 13.201 10.518 13.305C11.055 13.476 11.544 13.451 11.931 13.394C12.362 13.33 13.258 12.852 13.445 12.328C13.632 11.804 13.632 11.355 13.576 11.261C13.52 11.167 13.369 11.11 13.146 10.998Z" fill="url(#paint0_linear_435:501)"/>
<defs>
<linearGradient id="paint0_linear_435:501" x1="9.01502" y1="0.141968" x2="9.01502" y2="18.258" gradientUnits="userSpaceOnUse">
<stop stop-color="#FFFFDA"/>
<stop offset="1" stop-color="#FFFFDA" stop-opacity="0.22"/>
</linearGradient>
</defs>
</svg>
