<svg width="230" height="33" viewBox="0 0 230 33" fill="none" xmlns="http://www.w3.org/2000/svg">
<g clip-path="url(#clip0_1048_5260)">
<path d="M47.7336 8.80981C48.0553 8.80981 48.1383 8.89277 48.2318 9.0172L52.4145 14.5959H52.5599L56.5973 9.04831C56.7115 8.90314 56.888 8.82018 57.1164 8.82018H59.6488C59.9083 8.82018 60.0016 9.04831 59.877 9.19348L54.2101 16.3068L60.5206 24.2288C60.666 24.4363 60.5829 24.6333 60.3131 24.6333H57.7597C57.5313 24.6333 57.3239 24.5503 57.1786 24.343L52.4664 18.0177H52.3211L47.8269 24.3221C47.6505 24.5296 47.4533 24.6436 47.2146 24.6436H44.6821C44.4746 24.6436 44.3604 24.4673 44.5057 24.2704L50.7227 16.369L45.118 9.25569C45.0038 9.04831 45.0557 8.82018 45.3257 8.82018H47.7336V8.80981Z" fill="white"/>
<path d="M72.7892 8.80981C76.2454 8.80981 78.7468 11.3088 78.7468 14.4714C78.7468 17.7274 76.2454 20.1641 72.7892 20.1641H67.7658V24.2288C67.7658 24.488 67.6516 24.6333 67.4129 24.6333H65.5238C65.2644 24.6333 65.1191 24.488 65.1191 24.2288V9.22458C65.1191 8.96535 65.2644 8.82018 65.5238 8.82018H72.7892V8.80981ZM72.7892 17.6962C74.9065 17.6962 76.1001 16.3275 76.1001 14.4714C76.1001 12.6464 74.9065 11.2777 72.7892 11.2777H67.7658V17.6962H72.7892Z" fill="white"/>
<path d="M84.2991 21.0042C85.3475 21.0042 86.2504 21.8751 86.2504 22.9224C86.2504 23.9696 85.3475 24.8719 84.2991 24.8719C83.2509 24.8719 82.3789 23.9696 82.3789 22.9224C82.3789 21.8751 83.2509 21.0042 84.2991 21.0042Z" fill="white"/>
<path d="M103.771 24.6331C103.563 24.6331 103.397 24.5502 103.272 24.3739L98.0724 17.8102L94.2114 12.5011L94.0659 12.5323L94.2424 17.2399V24.239C94.2424 24.4983 94.0972 24.6435 93.8065 24.6435H91.9799C91.7515 24.6435 91.627 24.4983 91.627 24.239V9.22447C91.627 8.96524 91.7411 8.82007 92.0006 8.82007H93.7132C94.0037 8.82007 94.2321 8.90303 94.3775 9.11041L99.9613 16.0785L103.449 20.9001L103.594 20.8691L103.386 16.1926V9.22447C103.386 8.96524 103.532 8.82007 103.791 8.82007H105.618C105.878 8.82007 105.992 8.96524 105.992 9.22447V24.239C105.992 24.4983 105.878 24.6435 105.618 24.6435H103.771V24.6331Z" fill="white"/>
<path d="M123.646 8.80981C123.854 8.80981 124.051 8.9861 124.051 9.21421V10.8733C124.051 11.0807 123.843 11.2466 123.646 11.2466H114.461V15.1661H122.826C123.086 15.1661 123.231 15.3113 123.231 15.5705V17.2296C123.231 17.4889 123.086 17.6029 122.826 17.6029H114.461V22.1653H123.937C124.196 22.1653 124.31 22.2795 124.31 22.5179V24.2288C124.31 24.488 124.196 24.6333 123.937 24.6333H112.198C111.938 24.6333 111.824 24.488 111.824 24.2288V9.22458C111.824 8.96535 111.938 8.82018 112.198 8.82018H123.646V8.80981Z" fill="white"/>
<path d="M142.474 8.80981C142.734 8.80981 142.879 8.95499 142.879 9.21421V10.8733C142.879 11.1325 142.734 11.2777 142.474 11.2777H137.098V24.2288C137.098 24.4363 136.953 24.6333 136.693 24.6333H134.866C134.607 24.6333 134.462 24.488 134.462 24.2288V11.2777H129.085C128.826 11.2777 128.681 11.1325 128.681 10.8733V9.21421C128.681 8.95499 128.826 8.80981 129.085 8.80981H142.474Z" fill="white"/>
<path d="M149.251 8.80981C149.511 8.80981 149.656 8.89277 149.719 9.10016L153.382 21.5536H153.528L157.046 9.10016C157.108 8.89277 157.254 8.80981 157.451 8.80981H159.402C159.61 8.80981 159.755 8.89277 159.807 9.10016L163.408 21.5536H163.554L167.187 9.13127C167.249 8.92387 167.394 8.80981 167.591 8.80981H169.74C169.999 8.80981 170.093 8.92387 169.999 9.18312L165.059 24.2807C164.976 24.5089 164.799 24.6333 164.561 24.6333H162.153C161.924 24.6333 161.779 24.5193 161.686 24.26L158.489 13.1441H158.343L155.178 24.2911C155.116 24.5193 154.97 24.6436 154.773 24.6436H152.334C152.075 24.6436 151.898 24.5296 151.815 24.2911L146.843 9.13127C146.76 8.92387 146.843 8.80981 147.103 8.80981H149.251Z" fill="white"/>
<path d="M182.122 8.58154C186.71 8.58154 190.291 12.0034 190.291 16.7421C190.291 21.4498 186.72 24.8717 182.122 24.8717C177.535 24.8717 173.954 21.4498 173.954 16.7421C173.954 12.0034 177.524 8.58154 182.122 8.58154ZM176.621 16.7421C176.621 19.9981 178.863 22.4037 182.112 22.4037C185.371 22.4037 187.602 19.9981 187.602 16.7421C187.602 13.4655 185.361 11.0494 182.112 11.0494C178.863 11.0494 176.621 13.4551 176.621 16.7421Z" fill="white"/>
<path d="M203.191 8.80981C206.648 8.80981 209.181 11.3088 209.181 14.4714C209.181 16.6801 207.987 18.5362 206.161 19.4694L208.807 24.1771C208.953 24.4363 208.807 24.6436 208.485 24.6436H206.368C206.109 24.6436 205.901 24.4363 205.787 24.2392L203.67 20.1435C203.586 20.1745 203.44 20.1745 203.264 20.1745H198.179V24.2392C198.179 24.4984 198.064 24.6436 197.806 24.6436H195.978C195.658 24.6436 195.543 24.4363 195.543 24.2392V9.22458C195.543 8.96535 195.689 8.82018 195.947 8.82018H203.191V8.80981ZM203.191 17.6962C205.31 17.6962 206.535 16.3275 206.535 14.4714C206.535 12.6464 205.31 11.2777 203.191 11.2777H198.168V17.6962H203.191Z" fill="white"/>
<path d="M216.934 8.80981C217.193 8.80981 217.338 8.95499 217.338 9.21421V16.1823L224.832 9.13127C225.04 8.92387 225.33 8.80981 225.673 8.80981H228.288C228.548 8.80981 228.661 9.06904 228.464 9.27642L221.49 15.6328L228.838 24.1355C229.047 24.343 228.922 24.6333 228.61 24.6333H226.286C225.933 24.6333 225.642 24.5193 225.414 24.26L219.57 17.3541L217.329 19.1583V24.2392C217.329 24.4984 217.183 24.6436 216.923 24.6436H215.097C214.838 24.6436 214.692 24.4984 214.692 24.2392V9.22458C214.692 8.96535 214.838 8.82018 215.097 8.82018H216.934V8.80981Z" fill="white"/>
<path d="M21.6508 31.8296L18.2154 28.3973C17.2397 27.4225 15.6621 27.4225 14.6969 28.3973L11.2614 31.8296C10.2546 32.8354 8.61469 32.8354 7.60792 31.8296L5.94727 30.1704L11.2095 24.9132C14.1053 22.0201 18.7966 22.0201 21.6923 24.9132L26.9547 30.1704L25.2939 31.8296C24.2975 32.8354 22.6679 32.8354 21.6508 31.8296Z" fill="#696969"/>
<path d="M2.99972 27.2152L1.33906 25.5562C0.332291 24.5503 0.332291 22.912 1.33906 21.9062L4.77455 18.474C5.75018 17.4993 5.75018 15.9231 4.77455 14.9588L1.33906 11.5266C0.332291 10.5208 0.332291 8.88243 1.33906 7.87662L2.99972 6.21753L8.26192 11.4747C11.1577 14.3678 11.1577 19.0546 8.26192 21.9477L2.99972 27.2152Z" fill="#696969"/>
<path d="M16.5027 10.6554C14.6033 10.6554 12.7039 9.93995 11.2612 8.48826L5.99902 3.23106L7.65968 1.57199C8.66645 0.566173 10.3064 0.566173 11.3131 1.57199L14.7486 5.00421C15.7139 5.96854 17.3019 5.96854 18.2671 5.00421L21.7026 1.57199C22.7094 0.566173 24.3492 0.566173 25.3561 1.57199L27.0168 3.23106L21.7545 8.48826C20.3014 9.91922 18.402 10.6554 16.5027 10.6554Z" fill="#696969"/>
<path d="M29.9642 27.1737L24.7021 21.9163C21.8063 19.0234 21.8063 14.3365 24.7021 11.4435L29.9642 6.18628L31.6249 7.84535C32.6318 8.85118 32.6318 10.4895 31.6249 11.4953L28.1895 14.9275C27.2139 15.9023 27.2139 17.4784 28.1895 18.4427L31.6249 21.875C32.6318 22.8808 32.6318 24.5191 31.6249 25.5248L29.9642 27.1737Z" fill="#696969"/>
</g>
<defs>
<clipPath id="clip0_1048_5260">
<rect width="228.571" height="31.8046" fill="white" transform="translate(0.498047 0.725098)"/>
</clipPath>
</defs>
</svg>
